<svg width="71" height="71" viewBox="0 0 71 71" fill="none" xmlns="http://www.w3.org/2000/svg">
<path d="M34.8452 32.8967C34.9248 33.8266 34.9761 34.7621 35.1034 35.6822C35.1359 35.917 35.3793 36.2136 35.5768 36.2913C36.1651 36.5231 36.779 36.6605 37.383 36.8346C37.3848 36.9137 37.3869 36.9924 37.3887 37.0715C36.8372 37.1542 36.2851 37.3079 35.7344 37.3003C35.1368 37.2918 34.9447 37.3381 34.8623 37.9926C34.7759 38.6779 34.5937 39.6241 34.4616 40.301C34.401 40.2994 34.3404 40.2974 34.2797 40.2958C34.204 39.4871 34.0989 38.6806 34.064 37.8691C34.0448 37.4183 33.8873 37.2506 33.5527 37.166C32.949 37.0134 32.3519 36.8239 31.7519 36.6498C31.7554 36.568 31.7592 36.4863 31.7627 36.4045C32.3671 36.3228 32.9704 36.2029 33.5764 36.1729C33.9805 36.1528 34.1058 35.94 34.1795 35.4977C34.3267 34.6126 34.5293 33.741 34.7087 32.8636C34.7539 32.8747 34.7994 32.8859 34.8447 32.8967L34.8452 32.8967Z" fill="#FD5B54"/>
<path d="M58.9888 42.2852C57.8795 41.9999 56.7709 41.6917 55.6488 41.5073C55.148 41.4248 54.6037 41.545 54.1018 41.6894C52.8681 42.0443 51.6476 42.4667 50.4217 42.8619C50.9166 42.3449 51.4756 41.9924 51.9804 41.5494C53.3609 40.3381 54.8146 39.7331 56.5275 40.4202C56.784 40.523 57.1603 40.2666 57.4569 40.1096C57.5737 40.0477 57.707 39.7791 57.6815 39.647C57.6557 39.5121 57.4501 39.3497 57.3134 39.3356C55.4273 39.1401 53.5238 38.5619 51.7219 39.8812C51.1163 40.3244 50.4185 40.5885 49.7533 40.9047C49.7507 40.906 49.7478 40.9075 49.7451 40.9088C49.3524 41.0929 48.9079 40.8889 48.7076 40.4412C48.3697 39.6861 48.0488 38.9685 47.7347 38.2665C47.4789 37.6949 47.5556 36.99 47.9246 36.5174L48.1178 36.2697C48.1195 36.2674 48.1184 36.2634 48.1156 36.2634L46.9304 36.153C46.9005 36.1554 46.8698 36.1519 46.8425 36.1373C46.7429 36.0845 46.6961 35.934 46.7552 35.8114C46.8561 35.6013 47.7799 35.4431 47.906 35.1808C44.527 34.0517 41.7904 35.5593 41.0541 35.8217C40.9291 35.8661 40.8095 35.934 40.6914 36.0074C40.5057 36.1231 40.4309 36.3968 40.52 36.6255C40.6068 36.8482 40.6993 37.0635 40.8399 37.2121C41.0402 37.4233 41.3769 37.4741 41.6621 37.5327C42.3034 37.6642 42.9537 37.7333 43.594 37.8698C44.3501 38.031 44.8343 39.6321 44.36 40.3554C43.7348 41.3085 42.9425 41.9965 41.9339 42.0936C40.5804 42.2242 39.2178 42.2628 37.8594 42.2572C36.8947 42.2533 35.951 42.1476 35.0008 42.5598C33.3349 43.282 32.0092 44.5868 30.708 45.9586C29.5014 47.2306 28.163 48.2571 26.5613 48.5273C25.726 48.6682 24.8508 48.4641 24.0113 48.4172C24.3008 49.0155 24.7996 49.4416 25.4861 49.5654C26.7482 49.7934 27.919 49.4228 28.9952 48.6738C29.9339 48.0205 30.818 47.2533 31.8277 46.4564C31.6849 46.9108 31.5942 47.2892 31.4521 47.6368C30.4706 50.0383 28.8138 51.3052 26.6796 51.7799C26.4539 51.8301 26.1588 51.9541 26.0505 52.1616C25.3346 53.5348 24.6526 54.9343 23.9846 56.3427C23.9 56.5213 23.8873 56.9385 23.9713 57.0045C24.1305 57.1298 24.4386 57.1902 24.5859 57.0813C24.8623 56.8768 25.097 56.5594 25.2983 56.242C25.8478 55.3757 26.3686 54.4835 26.9052 53.605C27.5385 52.5683 28.5445 52.5359 29.4511 52.2151C28.9533 53.0312 28.3519 53.653 27.5712 54.0312C27.3271 54.1495 27.0452 54.4089 26.953 54.6869C26.4783 56.1216 26.046 57.5775 25.6356 59.0409C25.5694 59.2769 25.6295 59.7778 25.734 59.8251C25.9463 59.9212 26.2727 59.8772 26.4695 59.73C26.661 59.587 26.7731 59.2557 26.8786 58.984C27.1461 58.2936 27.4126 57.6002 27.6392 56.8896C28.0656 55.5541 28.6823 54.4767 29.9015 54.0542C30.2579 53.9309 34.6299 50.716 35.4927 48.1121C35.9024 46.8757 36.4461 46.7521 37.3943 46.9326C38.6181 47.1654 39.8315 47.4796 41.0474 47.77C43.2865 48.3048 45.4478 48.2413 47.5546 46.9519C49.6137 45.6921 51.7502 44.6192 53.834 43.4169C55.181 42.6398 56.4995 42.4797 57.8979 43.2325C58.2161 43.404 58.672 43.2751 59.0475 43.1825C59.1974 43.1454 59.3009 42.8323 59.4255 42.645C59.2808 42.5214 59.1487 42.3269 58.9894 42.286L58.9888 42.2852ZM44.7849 35.6396L43.278 35.9194C43.2511 35.7082 43.5667 35.4745 43.9827 35.3969C44.399 35.3196 44.7579 35.4281 44.7848 35.6393L44.7849 35.6396Z" fill="#FD5B54"/>
<path d="M12.0282 27.8431C13.1293 28.1719 14.229 28.5235 15.3455 28.7519C15.8439 28.854 16.391 28.7553 16.8966 28.6307C18.1392 28.3244 19.3704 27.9502 20.6062 27.6033C20.0977 28.1007 19.5296 28.431 19.0131 28.854C17.6007 30.0103 16.1315 30.5579 14.438 29.8039C14.1844 29.6911 13.8015 29.9325 13.5007 30.0778C13.3824 30.1351 13.242 30.3983 13.2639 30.5313C13.286 30.6672 13.4872 30.8375 13.6234 30.857C15.5032 31.1265 17.3902 31.7792 19.2266 30.5315C19.8438 30.1123 20.5483 29.8757 21.2217 29.5858C21.2244 29.5846 21.2273 29.5832 21.23 29.582C21.6274 29.4134 22.0662 29.6348 22.2544 30.0901C22.5718 30.8581 22.8732 31.588 23.1683 32.3019C23.4086 32.8833 23.3129 33.5848 22.9314 34.0426L22.7316 34.2826C22.7299 34.2848 22.7308 34.2888 22.7337 34.289L23.9153 34.4459C23.9452 34.4446 23.9758 34.4494 24.0028 34.465C24.1009 34.5217 24.1436 34.674 24.0812 34.7942C23.9748 35.0002 23.0472 35.1221 22.914 35.3793C26.2609 36.6406 29.0366 35.2412 29.7796 35.008C29.9057 34.9685 30.0271 34.9053 30.147 34.8366C30.3358 34.7282 30.4179 34.4576 30.335 34.2256C30.2543 33.9995 30.1676 33.7807 30.031 33.6267C29.8365 33.4077 29.5014 33.3437 29.2179 33.2739C28.5805 33.1173 27.9324 33.0227 27.2961 32.8611C26.5447 32.6703 26.1038 31.051 26.5974 30.3467C27.2478 29.4187 28.0582 28.7622 29.0689 28.7048C30.4253 28.6274 31.7882 28.6424 33.1457 28.7013C34.1098 28.7432 35.0501 28.8858 36.0109 28.5112C37.6954 27.8549 39.0555 26.6029 40.3929 25.2829C41.633 24.059 42.9984 23.0856 44.6065 22.8785C45.4451 22.7705 46.3144 23.0089 47.1522 23.0887C46.8789 22.4794 46.3918 22.0339 45.709 21.8832C44.4537 21.6057 43.2735 21.9301 42.1777 22.6365C41.222 23.2525 40.3177 23.9846 39.2872 24.7414C39.4421 24.2929 39.5429 23.9182 39.6943 23.5763C40.7399 21.2146 42.4298 20.0136 44.5757 19.623C44.8026 19.5817 45.1009 19.4693 45.2147 19.2661C45.9672 17.9218 46.6865 16.5499 47.392 15.1685C47.4813 14.9933 47.5053 14.5768 47.4231 14.5075C47.2674 14.3761 46.961 14.3036 46.8109 14.4066C46.5291 14.6001 46.286 14.9082 46.0763 15.2175C45.5037 16.0618 44.9593 16.933 44.3993 17.79C43.7385 18.8012 42.7322 18.7941 41.8173 19.0791C42.3369 18.2829 42.9547 17.6851 43.7452 17.3378C43.9923 17.2291 44.281 16.981 44.3806 16.7067C44.8936 15.2915 45.3649 13.8534 45.8145 12.4068C45.887 12.1735 45.8404 11.6706 45.7372 11.6191C45.5276 11.5148 45.2002 11.546 44.9995 11.6854C44.8043 11.8207 44.6833 12.1474 44.5706 12.4148C44.2847 13.0944 43.9997 13.7769 43.754 14.4782C43.2919 15.7964 42.6466 16.8489 41.4167 17.2233C41.0571 17.3325 36.601 20.3739 35.6686 22.9425C35.2258 24.1622 34.6792 24.2644 33.7363 24.0467C32.5194 23.7659 31.3151 23.4042 30.1077 23.0662C27.8841 22.4437 25.7223 22.4223 23.5819 23.6282C21.49 24.8064 19.3257 25.7948 17.2107 26.9146C15.8435 27.6384 14.5214 27.7465 13.1441 26.9393C12.8306 26.7553 12.3715 26.8663 11.9937 26.944C11.8429 26.9752 11.731 27.2841 11.6014 27.4664C11.7427 27.5956 11.8695 27.7952 12.0276 27.8423L12.0282 27.8431ZM26.0458 35.0433L27.5595 34.8229C27.5807 35.035 27.259 35.2563 26.841 35.3174C26.423 35.3783 26.0672 35.2558 26.0459 35.0436L26.0458 35.0433Z" fill="#FD5B54"/>
</svg>
