<svg width="18" height="169" viewBox="0 0 18 169" fill="none" xmlns="http://www.w3.org/2000/svg">
<path d="M12.3888 0.276703L12.458 0.276703C13.0574 2.00578 14.9248 2.16716 15.4781 2.21327L15.4781 2.30548L12.5272 2.30548L12.5272 3.50431L12.3888 3.50431L12.3888 2.30548L4.68869 2.30548C2.29104 2.30548 1.13832 2.69741 1.06916 3.48125L0.999998 3.48125C0.999998 1.77523 2.45242 1.24498 4.50426 1.24498L12.3888 1.24498L12.3888 0.276703ZM16.1697 3.77286L16.2389 3.77286L17.138 5.54804L10.9595 5.54804C12.1122 6.00913 12.7116 6.95435 12.7116 7.87653C12.7116 9.46727 11.628 10.0206 8.37738 10.4586L4.59647 10.9658C2.3602 11.2655 1.46108 11.7497 0.999998 12.1646L0.999998 10.2742L7.87019 9.44422C10.4753 9.12146 11.9969 8.84481 12.0661 7.46155C12.1122 6.56243 11.4897 5.93996 10.6828 5.54804L3.78957 5.54804C2.33715 5.54804 1.36887 5.89385 0.999998 6.33189L0.999998 4.44143L13.6568 4.5567C14.8326 4.5567 15.7778 4.28005 16.1697 3.77286ZM6.69442 11.7214C10.1526 11.7214 12.7116 13.5888 12.7116 15.7789C12.7116 17.5311 11.0056 18.8221 8.30822 18.8221L8.30822 12.9202C8.10073 12.8971 7.47826 12.851 7.08634 12.851C4.20455 12.851 1.94523 14.1421 1.94523 15.9864C1.94522 18.0844 4.13539 19.3293 6.50998 19.629C3.4207 19.606 0.815563 17.8308 0.815563 15.6637C0.815563 13.4966 3.35154 11.7214 6.69442 11.7214ZM8.4696 12.9433L8.4696 15.5023C8.4696 17.2314 9.50704 17.6694 10.4523 17.6694C11.7433 17.6694 12.5963 16.8164 12.5272 15.6637C12.458 14.3265 11.0056 13.1969 8.4696 12.9433ZM16.1697 24.1255L16.2389 24.1255L17.138 25.9007L10.9595 25.9007C12.1122 26.3618 12.7116 27.307 12.7116 28.2292C12.7116 29.8199 11.628 30.3732 8.37738 30.8113L4.59647 31.3184C2.3602 31.6182 1.46108 32.1023 0.999997 32.5173L0.999997 30.6268L7.87019 29.7969C10.4753 29.4741 11.9969 29.1974 12.0661 27.8142C12.1122 26.9151 11.4897 26.2926 10.6828 25.9007L3.78957 25.9007C2.33715 25.9007 1.36887 26.2465 0.999997 26.6845L0.999997 24.7941L13.6568 24.9093C14.8326 24.9093 15.7778 24.6327 16.1697 24.1255ZM12.7116 35.8319C12.7116 37.9298 9.99118 39.7511 6.67136 39.7511C3.32848 39.7511 0.815562 38.022 0.815562 35.9702C0.815562 33.8723 3.53597 32.074 6.85579 32.074C10.1526 32.074 12.7116 33.8031 12.7116 35.8319ZM1.11527 36.4313C1.11527 37.9529 3.39765 38.7137 5.70308 38.7137C8.7693 38.7137 12.3888 37.2151 12.3888 35.3938C12.3888 33.8723 10.1295 33.0884 7.82408 33.0884C4.64258 33.0884 1.11527 34.61 1.11527 36.4313ZM11.7433 39.9979L11.8125 39.9979L12.7116 41.7961L4.31982 41.75C2.0605 41.7269 1.32276 42.4877 1.39192 43.7096C1.43803 44.6087 1.85301 45.3465 2.49853 45.8767L9.23039 45.9228C10.4062 45.9459 11.3514 45.6462 11.7433 45.139L11.8125 45.139L12.7116 46.9372L3.78957 46.8911C2.33715 46.8911 1.36887 47.3291 0.999996 47.7672L0.999997 45.8767L2.29104 45.8767C1.36887 45.1851 0.861671 44.0554 0.815562 43.1102C0.746399 41.5194 1.71468 40.6895 4.11233 40.7125L9.23039 40.7587C10.4062 40.7587 11.3514 40.5051 11.7433 39.9979ZM1.48414 48.4503L5.31115 48.2428L5.31115 48.2659C3.32848 48.5887 1.09221 49.7183 1.0461 51.2168C0.976942 52.5079 1.94522 53.2456 3.37459 53.1073C4.91923 52.969 5.72613 51.8163 6.64831 50.848C7.59353 49.8336 8.60792 48.4964 10.2448 48.4273C11.9739 48.3581 12.7577 49.603 12.7116 50.9632C12.6655 52.0929 12.4119 52.6232 12.0891 53.1304L9.23039 53.3609L9.23039 53.3148C10.5445 53.1073 12.458 52.0007 12.5272 50.8249C12.5733 49.8797 12.0891 49.2572 10.9134 49.2572C9.48399 49.2572 8.72319 50.433 7.87018 51.3552C6.9019 52.4157 5.86446 53.822 3.9279 53.9142C2.12966 54.0064 0.815562 52.7384 0.815562 51.0555C0.815562 49.8797 1.13832 49.0267 1.48414 48.4503ZM6.69441 54.3854C10.1526 54.3854 12.7116 56.2528 12.7116 58.4429C12.7116 60.1951 11.0056 61.4861 8.30822 61.4861L8.30822 55.5842C8.10073 55.5611 7.47826 55.515 7.08634 55.515C4.20455 55.515 1.94522 56.8061 1.94522 58.6504C1.94522 60.7484 4.13538 61.9933 6.50998 62.293C3.4207 62.27 0.815561 60.4948 0.815561 58.3277C0.815562 56.1606 3.35154 54.3854 6.69441 54.3854ZM8.4696 55.6073L8.4696 58.1663C8.4696 59.8954 9.50704 60.3334 10.4523 60.3334C11.7433 60.3334 12.5963 59.4804 12.5272 58.3277C12.458 56.9905 11.0056 55.8609 8.4696 55.6073ZM0.999995 70.2015L0.999996 68.3111L10.5675 68.4264C12.5041 68.4494 12.3888 66.8587 12.3888 66.4898L12.5272 66.4898L12.5272 70.1785C13.0805 68.0805 14.9018 66.5128 16.1236 66.5128C16.9997 66.5128 17.3225 66.997 17.3225 67.6425C17.3225 68.3111 16.9075 69.0258 16.5156 69.6943C16.2389 70.1785 15.9392 70.7318 15.7548 71.3543L14.3023 71.3543L15.017 70.4782C16.2158 69.0258 17.0689 68.8413 17.0689 68.2189C17.0689 67.9422 16.8614 67.7117 16.2158 67.7117C14.0718 67.7117 12.5272 69.7174 12.5272 71.3543L12.3888 71.3543L12.3888 69.4177L3.92789 69.4177C1.48414 69.4177 0.999995 70.2015 0.999995 70.2015ZM12.7116 74.7811C12.7116 76.879 9.99118 78.7003 6.67136 78.7003C3.32848 78.7003 0.815561 76.9712 0.815561 74.9194C0.815561 72.8214 3.53597 71.0232 6.85579 71.0232C10.1526 71.0232 12.7116 72.7523 12.7116 74.7811ZM1.11527 75.3805C1.11527 76.9021 3.39764 77.6629 5.70308 77.6629C8.7693 77.6629 12.3888 76.1643 12.3888 74.343C12.3888 72.8214 10.1295 72.0376 7.82407 72.0376C4.64258 72.0376 1.11527 73.5592 1.11527 75.3805ZM11.7433 79.0596L11.8125 79.0596L12.7116 80.8348L9.50704 80.8348C11.5128 81.1576 12.458 82.3794 12.7116 84.2468L11.3744 83.9702C11.5819 82.2872 10.36 80.8348 8.95374 80.8348L3.78957 80.8348C2.33715 80.8348 1.36886 81.1806 0.999995 81.6187L0.999995 79.7282L9.23039 79.8435C10.4062 79.8665 11.3514 79.5668 11.7433 79.0596ZM12.7116 100.313C12.7116 102.411 9.99118 104.233 6.67136 104.233C3.32848 104.233 0.815559 102.504 0.81556 100.452C0.81556 98.4921 3.1671 96.8091 6.18722 96.5786C3.05183 96.5555 0.81556 94.9187 0.81556 92.7977C0.81556 90.6536 3.30543 88.8093 6.67136 88.8093C10.1295 88.8093 12.6194 90.5614 12.7116 92.7285C12.7577 93.9043 12.4119 95.1031 11.7433 95.8408L8.44654 95.8408C11.0056 95.3567 12.5963 94.0656 12.481 92.5902C12.3427 90.6767 9.80675 89.8236 7.24772 89.8236C4.25065 89.8236 1.94522 91.253 1.94522 93.0743C1.94522 95.3567 4.38898 96.3941 6.87885 96.5555C10.1756 96.5555 12.7116 98.2846 12.7116 100.313ZM1.11527 100.913C1.11527 102.434 3.39764 103.195 5.70308 103.195C8.7693 103.195 12.3888 101.697 12.3888 99.8753C12.3888 98.3537 10.1295 97.5699 7.82407 97.5699C4.64258 97.5699 1.11527 99.0915 1.11527 100.913ZM16.1697 104.59L16.2389 104.59L17.138 106.366L3.78957 106.366C2.33714 106.366 1.36886 106.711 0.999994 107.15L0.999994 105.259L13.6568 105.374C14.8326 105.374 15.7778 105.098 16.1697 104.59ZM16.1697 107.427L16.2389 107.427L17.138 109.202L3.78957 109.202C2.33714 109.202 1.36886 109.548 0.999994 109.986L0.999994 108.096L13.6568 108.211C14.8326 108.211 15.7778 107.934 16.1697 107.427ZM4.75785 110.31C6.71747 110.402 9.5762 111.786 10.8211 113.676C9.48398 112.592 7.33993 111.371 5.17283 111.371C3.58208 111.371 1.64551 112.085 1.64551 113.953C1.64551 114.713 1.99133 115.52 2.93656 116.074C6.07194 115.29 10.36 114.183 11.2822 113.791C12.2044 113.399 12.4349 112.546 12.0891 111.763L12.1122 111.739C12.5041 112.154 12.7346 112.777 12.7116 113.261C12.6885 113.814 12.481 114.46 10.9825 114.99C9.94507 115.359 4.82701 116.719 3.25932 117.134C1.89911 117.503 1.36886 117.803 0.999993 118.126L0.999993 116.558L2.75212 116.12C1.57635 115.613 0.815559 114.875 0.815559 113.399C0.815559 111.394 2.6599 110.218 4.75785 110.31ZM16.1697 117.896L16.2389 117.896L17.138 119.671L11.0286 119.671C12.1122 120.202 12.7116 121.124 12.7116 122.161C12.7116 124.052 10.4753 125.827 6.83274 125.827C2.72907 125.827 0.907776 123.913 0.815559 122.184C0.746396 120.916 1.25359 120.179 1.96827 119.648L0.999993 118.565L13.6568 118.68C14.8326 118.68 15.7778 118.403 16.1697 117.896ZM10.752 119.671L2.17576 119.671C1.66857 120.109 1.36886 120.663 1.41497 121.631C1.43803 122.922 3.02877 124.628 6.69441 124.628C9.99118 124.628 12.0891 123.222 12.0891 121.562C12.0891 120.893 11.7433 120.133 10.752 119.671ZM12.7116 130.12C12.7116 132.218 9.99118 134.04 6.67136 134.04C3.32848 134.04 0.815558 132.311 0.815558 130.259C0.815558 128.161 3.53597 126.363 6.85579 126.363C10.1526 126.363 12.7116 128.092 12.7116 130.12ZM1.11526 130.72C1.11526 132.241 3.39764 133.002 5.70307 133.002C8.7693 133.002 12.3888 131.504 12.3888 129.682C12.3888 128.161 10.1295 127.377 7.82407 127.377C4.64258 127.377 1.11526 128.899 1.11526 130.72ZM11.7433 134.399L11.8125 134.399L12.7116 136.174L9.50704 136.174C11.5128 136.497 12.458 137.719 12.7116 139.586L11.3744 139.31C11.5819 137.627 10.36 136.174 8.95373 136.174L3.78957 136.174C2.33714 136.174 1.36886 136.52 0.999993 136.958L0.999993 135.068L9.23039 135.183C10.4062 135.206 11.3514 134.906 11.7433 134.399ZM4.75785 139.083C6.71746 139.175 9.5762 140.558 10.8211 142.449C9.48398 141.365 7.33993 140.143 5.17282 140.143C3.58208 140.143 1.64551 140.858 1.64551 142.726C1.64551 143.486 1.99133 144.293 2.93656 144.847C6.07194 144.063 10.36 142.956 11.2822 142.564C12.2044 142.172 12.4349 141.319 12.0891 140.535L12.1122 140.512C12.5041 140.927 12.7346 141.55 12.7116 142.034C12.6885 142.587 12.481 143.233 10.9825 143.763C9.94507 144.132 4.82701 145.492 3.25932 145.907C1.89911 146.276 1.36886 146.576 0.999992 146.898L0.999992 145.331L2.75212 144.893C1.57635 144.385 0.815558 143.648 0.815558 142.172C0.815558 140.167 2.6599 138.991 4.75785 139.083ZM12.3888 146.145L12.458 146.145C13.0574 147.874 14.9248 148.035 15.4781 148.081L15.4781 148.174L12.5272 148.174L12.5272 149.372L12.3888 149.372L12.3888 148.174L4.68868 148.174C2.29103 148.174 1.13832 148.566 1.06915 149.349L0.999992 149.349C0.999992 147.643 2.45241 147.113 4.50425 147.113L12.3888 147.113L12.3888 146.145ZM14.6251 149.756C14.141 149.756 13.749 150.171 13.749 150.655C13.749 151.163 14.141 151.531 14.6251 151.531C15.1092 151.531 15.5012 151.163 15.5012 150.655C15.5012 150.171 15.1092 149.756 14.6251 149.756ZM11.7433 149.641L11.8125 149.641L12.7116 151.416L3.78956 151.416C2.33714 151.416 1.36886 151.762 0.999992 152.2L0.999992 150.31L9.23039 150.425C10.4062 150.448 11.3514 150.148 11.7433 149.641ZM12.7116 156.282C12.7116 158.38 9.99118 160.201 6.67135 160.201C3.32848 160.201 0.815557 158.472 0.815557 156.42C0.815557 154.322 3.53597 152.524 6.85579 152.524C10.1526 152.524 12.7116 154.253 12.7116 156.282ZM1.11526 156.881C1.11526 158.403 3.39764 159.163 5.70307 159.163C8.7693 159.163 12.3888 157.665 12.3888 155.844C12.3888 154.322 10.1295 153.538 7.82407 153.538C4.64257 153.538 1.11526 155.06 1.11526 156.881ZM11.7433 160.56L11.8125 160.56L12.7116 162.335L10.9595 162.335C12.1122 162.797 12.7116 163.742 12.7116 164.664C12.7116 166.255 11.628 166.808 8.37737 167.246L4.59647 167.753C2.3602 168.053 1.46108 168.537 0.999991 168.952L0.999991 167.062L7.87018 166.232C10.4753 165.909 11.9969 165.632 12.0661 164.249C12.1122 163.35 11.4897 162.727 10.6828 162.335L5.0345 162.335C2.9135 162.335 1.53024 162.681 0.999991 163.119L0.999992 161.252L8.83846 161.344C10.0603 161.367 11.2361 161.206 11.7433 160.56Z" fill="#FD6854"/>
</svg>
