<svg width="24" height="84" viewBox="0 0 24 84" fill="none" xmlns="http://www.w3.org/2000/svg">
<path d="M9.99219 58.8624C9.99219 58.8624 10.0203 58.8792 10.0344 58.8959C10.0767 58.8792 10.1119 58.8708 10.1471 58.854C10.0978 58.854 10.0415 58.8624 9.99219 58.8708V58.8624Z" fill="#FD5B54"/>
<path d="M14.8982 55.5015C14.701 55.6122 14.518 55.7483 14.342 55.9099C14.2998 55.978 14.2364 56.0375 14.166 56.063C14.1871 56.1056 14.2083 56.1567 14.2083 56.2247C14.525 55.995 15.0108 55.91 15.2994 55.927C15.6866 55.9865 15.6021 56.6927 15.2149 56.6246C14.6447 56.6076 14.5251 56.9394 14.2505 57.0245C14.2646 57.2627 14.2435 57.5265 14.2435 57.6967C14.2435 57.7393 14.2294 57.7818 14.2223 57.8244C14.6236 57.9945 15.0249 58.1817 15.4543 58.1221C15.8204 58.1136 16.116 57.8328 16.4258 57.6541C16.4469 57.6541 16.468 57.6457 16.4891 57.6372C16.5877 57.4075 16.6299 57.1351 16.6018 56.8203C16.6229 55.8163 15.6585 55.0336 14.8841 55.5015H14.8982Z" fill="#FD5B54"/>
<path d="M18.6802 36.6211C18.2227 36.519 17.7721 36.4424 17.3145 36.3659C17.2019 36.3488 17.0822 36.3318 16.9696 36.3233C16.8851 36.3574 16.7725 36.3659 16.6387 36.3233C16.6035 36.3233 16.5683 36.3233 16.5331 36.3148C16.3149 36.3403 16.0826 36.2808 15.8643 36.2893C14.379 36.2468 12.8865 36.1532 11.4082 36.3318C12.1615 36.3574 12.9147 36.3999 13.6609 36.4594C15.2096 36.5445 16.7584 36.7657 18.2649 37.2082C18.9477 37.3358 19.6236 37.4975 20.2783 37.7613C20.3768 37.8038 20.4683 37.8548 20.5458 37.8974C20.7147 37.8463 20.8766 37.7697 21.0315 37.6762C20.4824 37.1061 19.5461 36.8083 18.7366 36.6211C18.7154 36.6211 18.7014 36.6211 18.6802 36.6211Z" fill="#FD5B54"/>
<path d="M14.5034 64.2057C14.1092 64.2312 13.7079 64.3078 13.3137 64.2993C13.1025 64.2568 13.0743 63.8824 13.2855 63.8058C13.4826 63.7633 13.6868 63.7803 13.8839 63.7462C14.3133 63.7462 15.0102 63.5421 15.4608 63.7037C15.3834 63.2443 15.313 62.7847 15.2566 62.3253C14.5597 62.3508 13.8628 62.4529 13.1729 62.4359C12.9265 62.3338 13.018 61.9084 13.2785 61.9339C13.8346 61.8914 14.3978 61.8573 14.961 61.8233C15.0173 61.8233 15.1088 61.8233 15.2003 61.8062C15.1792 61.602 15.151 61.3893 15.1299 61.1851C15.0806 60.7087 15.0665 60.2322 15.0454 59.7558C14.9328 59.7728 14.8202 59.7727 14.7075 59.7727C14.3344 59.7557 13.9754 59.5941 13.6375 59.4069C13.56 59.4239 13.4967 59.3983 13.4545 59.3473C13.2222 59.5259 12.9546 59.6196 12.6801 59.6451C12.4619 62.9124 12.5182 66.1882 12.5815 69.464C12.5956 71.8549 12.6026 74.2373 12.7857 76.6026C12.9476 78.2703 13.1165 79.938 13.3559 81.5972C13.37 81.9886 13.6234 82.4736 13.4545 82.831C13.37 82.9671 13.1869 83.0096 13.0673 82.916C12.8138 82.6608 12.8842 82.1672 12.7786 81.8184C12.6308 80.908 12.5393 79.9891 12.4337 79.0787C12.0324 75.939 11.9902 72.7568 11.9832 69.5831C11.9198 66.2647 11.8564 62.9379 12.0747 59.6366C11.9198 59.6111 11.772 59.5771 11.6312 59.5345C11.4622 59.509 11.1806 59.3558 10.9061 59.1431C10.6738 59.3728 10.3922 59.526 10.0965 59.6196C10.0613 59.8578 10.005 60.096 9.97683 60.3258C9.57557 63.3463 8.68153 66.2478 7.78044 69.0981C6.87232 72.1782 5.68963 75.1818 4.07049 77.8364C3.65515 78.4916 3.21869 79.1297 2.71887 79.6913C2.68367 79.7253 2.65552 79.7678 2.61328 79.8104C4.94343 80.5421 7.25948 81.4185 9.58964 82.1502C10.4837 82.4565 11.3777 82.7544 12.2718 83.0607C12.4407 83.1373 12.6308 83.1798 12.7998 83.2479C12.8772 83.1373 13.018 83.0776 13.1447 83.0691C13.5249 82.9585 13.905 82.8395 14.2851 82.7203C15.32 82.414 16.3548 82.1247 17.3967 81.861C18.7272 81.5206 20.0648 81.1888 21.4094 80.8995C21.522 80.874 21.6346 80.8485 21.7473 80.823C21.7191 80.7889 21.691 80.7548 21.6628 80.7293C21.5924 80.6442 21.529 80.5506 21.4657 80.457C21.4657 80.457 21.4657 80.457 21.4586 80.457C20.0929 80.7889 18.7202 81.0612 17.3474 81.359C16.6927 81.5207 16.038 81.6993 15.3833 81.8354C15.137 81.8439 14.7216 82.1162 14.5315 81.9035C14.3555 81.6142 14.6301 81.4526 14.8483 81.4355C15.151 81.359 15.4608 81.2909 15.7705 81.2228C16.9462 80.9165 18.1218 80.6527 19.3115 80.4145C19.931 80.2783 20.5505 80.1337 21.17 79.989C21.0574 79.8104 20.9518 79.6318 20.8462 79.4446C20.6279 79.5126 20.3956 79.5466 20.1774 79.6232C19.924 79.6573 19.2904 79.9635 19.1214 79.6913C19.0018 79.487 19.1848 79.2658 19.3678 79.2829C19.572 79.2573 19.7691 79.2063 19.9732 79.1552C20.1704 79.1297 20.3745 79.0361 20.5787 78.9766C20.5294 78.883 20.4801 78.7978 20.4308 78.7042C20.3956 78.6362 20.3604 78.5597 20.3252 78.4831C20.2056 78.5086 20.0788 78.5256 19.9592 78.5597C19.5368 78.6618 19.1074 78.7638 18.685 78.8489C17.805 79.0276 16.9321 79.2319 16.0592 79.4361C15.7987 79.4616 15.503 79.6317 15.2566 79.5126C15.0384 79.3169 15.2285 79.0106 15.4678 79.0361C16.3337 78.8744 17.1855 78.6362 18.0444 78.4661C18.4808 78.3725 18.9173 78.2873 19.3538 78.1852C19.5931 78.1512 19.8395 78.0491 20.0859 77.9981C20.0014 77.8279 19.9099 77.6577 19.8325 77.479C19.8325 77.5216 19.8184 77.5556 19.7832 77.5982C19.5931 77.8534 18.8962 77.7938 18.5935 77.8874C17.7768 78.0066 16.9673 78.2193 16.1507 78.3469C16.031 78.3554 15.8972 78.4405 15.7916 78.3469C15.6156 78.2193 15.7001 77.8959 15.9043 77.8789C16.2563 77.8023 16.6153 77.7598 16.9673 77.6918C17.7909 77.5046 18.6216 77.3684 19.4594 77.2578C19.5438 77.2323 19.6705 77.2579 19.755 77.3174C19.0158 75.7519 18.3682 74.1181 17.8332 72.4419C16.8758 69.7277 16.038 66.9454 15.5241 64.0696C15.2285 64.2397 14.8272 64.1376 14.5034 64.1972V64.2057ZM13.1377 60.2748C13.3137 59.9429 13.9824 60.2492 14.257 60.3173C13.9472 60.4874 13.553 60.7087 13.2151 60.5811C13.1306 60.5215 13.0954 60.3854 13.1377 60.2748ZM12.835 61.3723C12.7927 61.0149 13.1729 61.0576 13.377 61.015C13.7501 60.964 14.1936 60.8618 14.4963 61.2022C14.2077 61.5425 13.7783 61.4489 13.4052 61.5255C13.2151 61.5425 12.8983 61.6871 12.835 61.3723ZM13.0884 63.006C13.7431 62.7167 14.5034 62.7848 15.1792 62.938C14.5526 63.2613 13.8628 63.3549 13.1869 63.4484C13.018 63.4144 12.9476 63.1336 13.0884 63.006ZM11.237 79.8359C11.0328 79.8785 10.8216 79.887 10.6175 79.853C9.44182 79.5467 8.30842 79.0276 7.13982 78.6788C6.66112 78.849 6.69631 77.9385 7.23837 78.1767C8.33657 78.5256 9.42773 78.934 10.5189 79.3169C10.7794 79.4275 11.0258 79.6147 11.2299 79.8274L11.237 79.8359ZM9.82196 76.4155C9.61077 76.3304 8.92088 76.2112 8.87864 75.956C8.82232 75.7688 9.01943 75.5816 9.16022 75.6497C9.2095 75.6667 9.27286 75.6923 9.3151 75.7093C9.76564 75.8625 10.2373 75.9986 10.5682 76.4155C10.3218 76.4665 10.0683 76.4665 9.82196 76.4155ZM8.80119 69.6597C9.32213 69.6938 9.54036 70.2723 8.86454 70.1957C8.49848 70.2042 8.42104 69.6768 8.80119 69.6597ZM8.33656 70.5786C8.63223 70.4085 9.19542 70.8764 9.44181 71.0806C9.30101 71.0806 9.16021 71.0806 9.01942 71.0721C8.78007 71.0466 8.02682 71.0466 8.33656 70.5786ZM8.17466 71.3699C8.41402 71.2252 8.73783 71.5741 8.91383 71.7528C8.78711 71.7698 8.65337 71.7528 8.52665 71.7528C8.35066 71.7528 7.96347 71.6592 8.17466 71.3784V71.3699ZM7.97755 72.9865C8.28026 73.0886 8.57593 73.1907 8.87864 73.2843C9.49813 73.48 10.0754 73.8119 10.6245 74.1862C10.181 74.1607 9.73749 74.0841 9.30103 73.9565C8.89272 73.8289 8.49145 73.6842 8.08314 73.5481C7.91419 73.463 7.63964 73.4886 7.57628 73.2418C7.51997 72.9525 7.80156 72.8674 7.97755 72.978V72.9865ZM7.18206 74.0671C7.27358 73.48 8.73081 74.5692 8.97016 74.7478C8.68153 74.7053 7.01311 74.5606 7.18206 74.0671ZM6.72448 74.7903C7.04127 74.6372 7.66779 75.1903 7.94234 75.3945C7.73115 75.403 7.51293 75.3945 7.2947 75.3604C7.11167 75.3264 6.92159 75.3008 6.7456 75.2157C6.61185 75.1307 6.57665 74.8839 6.72448 74.7903ZM6.83007 75.7433C7.50589 76.0411 8.21689 76.2113 8.88566 76.5431C9.49108 76.9345 9.52628 76.96 8.80119 76.9515C8.21689 76.8749 7.62556 76.5601 7.06942 76.3814C6.85823 76.2538 6.24578 76.1687 6.21762 75.888C6.21762 75.437 6.61184 75.6412 6.83007 75.7433ZM5.65443 76.6623C5.75299 76.3134 6.08385 76.5601 6.288 76.6026C6.78782 76.7558 7.25246 77.0537 7.71709 77.3089C7.78044 77.343 7.85083 77.377 7.90715 77.4195C7.71708 77.4195 7.52701 77.4195 7.33694 77.394C6.87935 77.3429 6.44289 77.1812 5.99939 77.0451C5.83044 77.0026 5.59811 76.926 5.65443 76.6623ZM5.28837 77.3684C5.46436 77.4025 5.63332 77.479 5.79523 77.5726C5.96419 77.6662 6.1261 77.7768 6.28098 77.9045C5.93603 77.9215 5.58403 77.879 5.23909 77.8109C4.99974 77.7769 5.04902 77.3344 5.28837 77.3769V77.3684ZM7.87194 80.0401C6.78782 79.6487 5.71075 79.2233 4.61959 78.8915C4.44359 78.7809 4.49288 78.4405 4.69704 78.415C4.89415 78.4235 5.09125 78.5171 5.28132 78.5682C6.21057 78.8745 7.12574 79.2233 8.04091 79.5721C8.22394 79.6742 8.39289 79.8189 8.5196 80.0061C8.30841 80.0826 8.08313 80.0827 7.87194 80.0316V80.0401ZM9.32214 80.5506C9.12503 80.457 9.16726 80.0912 9.37845 80.0657C9.52629 80.0657 9.653 80.1847 9.79379 80.2188C10.2303 80.4145 10.7301 80.457 11.1243 80.7548C11.4622 81.1037 11.0539 81.2143 10.7934 81.1122C10.3007 80.8995 9.7938 80.7974 9.3151 80.5506H9.32214ZM10.9624 81.9971C10.3288 81.6738 10.3218 81.5972 11.0257 81.6227C11.4974 81.5972 11.3777 82.2354 10.9624 81.9971ZM15.3129 64.9034C15.0102 65.1076 14.5034 65.1927 14.1162 65.2693C13.898 65.2693 13.5319 65.4734 13.4474 65.1161C13.3418 64.512 15.0243 64.8013 15.3129 64.8949V64.9034ZM13.7994 66.5795C14.3626 66.5625 14.9187 66.5966 15.4608 66.7413C14.9047 66.9199 14.3415 67.0901 13.7572 67.0901C13.37 67.1242 13.4193 66.4689 13.7924 66.5795H13.7994ZM15.6156 67.7198C15.2144 67.8899 14.785 68.0175 14.3626 68.1111C14.1795 68.1196 13.9824 68.2643 13.8135 68.1622C13.2503 67.3539 15.3129 67.6687 15.6156 67.7198ZM14.2922 71.7443C14.9539 71.6762 15.6579 71.4975 16.2985 71.8038C15.679 72.2292 14.9398 72.1697 14.25 72.2548C13.9895 72.2037 14.0317 71.7358 14.2922 71.7443ZM15.6297 80.0827C16.2422 79.9381 16.8687 79.8615 17.4812 79.7253C17.6994 79.6573 17.9599 79.6743 18.1429 79.8445C18.0303 80.0487 17.8402 80.1762 17.6431 80.2103C17.2418 80.3039 16.8335 80.3719 16.4323 80.44C16.1084 80.4996 15.7846 80.5676 15.4608 80.6442C15.2707 80.6782 14.9891 80.8399 14.8976 80.5506C14.8202 80.0997 15.3974 80.1848 15.6368 80.0827H15.6297ZM18.685 76.5091C18.5019 76.6367 18.2978 76.7303 18.0936 76.8068C17.4953 77.0025 16.8758 77.0536 16.2704 77.1898C15.9958 77.2068 15.6861 77.4365 15.4326 77.2749C15.144 76.8239 15.7283 76.7984 15.9676 76.7388C16.566 76.6112 17.1644 76.4835 17.7698 76.3984C18.0796 76.3729 18.3893 76.4325 18.685 76.5091ZM15.7072 75.2583C15.7072 74.884 16.1436 74.986 16.3548 74.9094C16.8054 74.8159 17.27 74.8499 17.7135 74.9435C17.446 75.0797 15.7072 75.8624 15.7072 75.2583ZM17.8121 75.7178C17.3967 76.1603 16.7631 76.1602 16.2351 76.1857C15.9395 76.0241 16.1295 75.6327 16.4111 75.6752C16.8758 75.6242 17.3686 75.4626 17.8121 75.7178ZM17.9036 73.8034C17.0799 74.1608 16.1999 74.2203 15.3341 74.3309C15.0877 74.365 14.8342 74.382 14.5878 74.4415C14.4963 74.5181 14.3555 74.5011 14.2781 74.399C13.9543 73.7608 15.2637 73.8885 15.5523 73.7949C16.3337 73.6587 17.1222 73.6757 17.8965 73.8118L17.9036 73.8034ZM15.144 73.0461C14.8835 73.0291 14.3696 73.3524 14.264 72.944C14.2077 72.5016 14.8835 72.6291 15.1229 72.5355C15.7353 72.4419 16.3619 72.3314 16.9743 72.5016C16.4182 72.8759 15.7776 72.9781 15.144 73.0546V73.0461ZM14.0106 71.1147C13.7994 70.9955 13.8909 70.5956 14.1232 70.6296C14.9328 70.5701 15.7494 70.5361 16.5449 70.7658C15.7283 71.004 14.8483 71.1912 14.0106 71.1232V71.1147ZM14.6723 70.1617C14.4189 70.1192 13.8557 70.4255 13.7783 70.0341C13.7431 69.6257 14.2218 69.7107 14.4471 69.6681C15.0595 69.6086 15.6861 69.5321 16.2915 69.7278C15.7776 69.983 15.2285 70.1447 14.6653 70.1617H14.6723ZM14.0176 69.1406C13.898 69.1406 13.8064 69.0045 13.8135 68.8684C13.7572 68.3749 15.7213 68.6642 16.0099 68.7322C15.3622 68.9364 14.6864 69.1321 14.0176 69.1406ZM14.1725 66.1797C13.9191 66.1541 13.4474 66.4519 13.3418 66.0605C13.3066 65.6521 13.7712 65.7458 13.9965 65.6862C14.5808 65.6011 15.1792 65.6181 15.7635 65.7457C15.2566 65.9669 14.7146 66.1286 14.1725 66.1797Z" fill="#FD5B54"/>
<path d="M13.0757 58.7949C13.0757 58.7949 13.0405 58.7096 13.0335 58.667C12.6745 58.8205 12.2732 58.8631 11.886 58.8631C11.8579 58.8631 11.8368 58.8631 11.8086 58.8631C12.231 59.008 12.6956 59.0166 13.0757 58.7949Z" fill="#FD5B54"/>
<path d="M19.9178 34.9279C20.3331 35.1151 20.8188 35.3278 21.2412 35.6086C21.3891 35.6937 21.5299 35.7873 21.6706 35.8894C20.9174 34.8258 18.8688 34.2302 17.7988 34.0005C17.1582 33.8559 16.5105 33.7197 15.8629 33.6091C15.0463 33.5921 14.2297 33.6091 13.4131 33.6091C12.8006 33.5921 12.1952 33.558 11.5827 33.541C11.3926 33.5665 11.2096 33.5921 11.0195 33.6261C11.8925 33.7027 12.7654 33.7963 13.6454 33.8558C15.7643 33.9239 17.8903 34.1962 19.9178 34.9194V34.9279Z" fill="#FD5B54"/>
<path d="M21.2838 39.2163C19.4535 40.5096 17.236 40.348 15.1804 40.4671C14.3637 40.5011 13.5542 40.5181 12.7376 40.5181C10.2385 40.4926 7.71121 40.4756 5.24731 39.88C4.03647 39.5226 2.3962 39.0632 1.49512 37.9315C1.80487 39.0717 2.61444 40.0247 3.67744 40.331C4.85307 40.7138 6.0639 40.9606 7.26066 41.2498C7.51409 41.3179 7.75345 41.4286 7.97872 41.5477C8.10544 41.5647 8.22511 41.5817 8.30255 41.5732C8.74605 41.6242 9.21067 41.6328 9.64009 41.7519C9.97096 41.9731 9.6753 42.3304 9.38667 42.2113C8.90093 42.1347 8.44335 42.0922 7.95761 42.0667C7.80977 42.0412 7.6056 42.1007 7.50001 41.9731C7.39441 41.9731 7.28178 41.9646 7.17619 41.9476C5.93719 41.6157 4.487 41.4456 3.27617 40.9095C4.87419 44.398 6.38071 47.9376 7.91537 51.4686C8.31663 52.4982 8.85869 53.4596 9.21068 54.5062C9.21068 54.5232 9.21068 54.5402 9.21068 54.5572C9.47819 54.5232 9.74569 54.5573 9.99208 54.6849C10.1188 54.804 10.147 55.0253 10.0414 55.1784C9.9428 55.3316 9.77384 55.3315 9.63304 55.2635C9.48521 55.2209 9.33034 55.2465 9.17547 55.2805C8.11951 55.5187 7.43666 56.6503 7.95056 57.8585C8.23215 58.6243 8.91501 59.0157 9.58378 58.9817C9.61194 58.9307 9.64714 58.8966 9.68937 58.8711C9.63306 58.8711 9.59081 58.8711 9.54857 58.8626C9.37258 58.803 9.2881 58.6669 9.28106 58.5307C9.24586 58.5733 9.18955 58.5988 9.11211 58.5818C8.88684 58.5563 8.87276 58.1563 9.09099 58.0968C9.24587 58.0542 9.33035 58.1734 9.34443 58.3095C9.42891 58.1904 9.59082 58.1139 9.80201 58.1734C9.90057 58.1734 10.0414 58.1308 10.1892 58.0968C9.99208 57.7735 9.92168 57.3905 9.92872 57.0077C9.85833 57.3055 9.78793 57.5182 9.6049 57.4672C9.49226 57.4331 9.40778 57.297 9.44298 57.1609C9.56969 56.4547 9.77384 55.7314 10.2525 55.2464C10.3722 55.0592 10.7242 54.9571 10.8016 55.1358C10.8368 55.1103 10.865 55.0763 10.8932 55.0508C11.5408 54.5062 13.0896 54.1489 13.4134 55.2805C13.4768 55.7655 12.8361 55.4251 12.6531 55.3145C12.3645 55.1953 12.0547 55.2294 11.7731 55.34C11.2099 55.5187 10.6609 56.0973 10.5412 56.761C10.5412 57.263 10.7242 57.6119 11.0058 57.8416C11.0903 57.8076 11.1818 57.799 11.2663 57.8075C11.5479 57.7905 11.8295 57.731 12.0899 57.6118C12.2941 57.3225 12.5757 57.1268 12.8361 56.9141C13.0473 56.7099 13.1881 56.4376 13.3782 56.2079C13.3641 56.1654 13.35 56.1228 13.343 56.0717C13.3148 55.7654 13.6035 55.6634 13.7583 55.7995C13.7302 55.6549 13.8006 55.5188 13.9132 55.3996C13.8287 55.3996 13.7442 55.4081 13.6598 55.3996C13.3782 55.3826 13.4063 54.8636 13.6879 54.8891C14.0047 54.9061 14.3215 54.855 14.6242 54.7614C14.7861 54.7359 14.934 54.6423 15.0818 54.5572C15.11 54.3786 15.2015 54.1829 15.2719 54.0297C14.8284 54.1914 14.3497 54.2254 13.8921 54.2595C13.5612 54.2595 13.1952 54.3616 12.8784 54.2595C12.7587 54.1744 12.7517 53.9616 12.8573 53.8595C12.9699 53.7489 13.1248 53.8 13.2585 53.783C13.8499 53.749 14.4553 53.7404 15.0396 53.5787C15.2437 53.5362 15.4127 53.4341 15.5746 53.3065C15.6872 53.0342 15.7999 52.7619 15.9125 52.4897C15.1592 52.8981 14.1807 52.9832 13.4204 53.0427C13.174 53.0342 13.1459 52.5833 13.3923 52.5322C13.5824 52.5067 13.7724 52.4982 13.9554 52.4726C14.7017 52.379 15.5042 52.311 16.1167 51.7324C16.173 51.6813 16.2293 51.6133 16.2926 51.5622C16.3208 51.4941 16.349 51.4176 16.3771 51.3495C16.4546 51.1283 16.5461 50.9071 16.6305 50.6859C15.7435 51.1794 14.5045 51.1793 13.6035 51.307C13.4838 51.307 13.3923 51.1793 13.3923 51.0432C13.3923 50.8901 13.519 50.7795 13.6527 50.7965C13.878 50.7624 14.1103 50.7454 14.3426 50.7199C15.117 50.5922 15.9266 50.5668 16.6165 50.1158C16.7432 50.0137 16.8699 49.9031 16.9896 49.784C17.0811 49.5542 17.1796 49.3245 17.2712 49.1033C16.7925 49.4181 16.2222 49.5883 15.6168 49.6819C15.3352 49.6819 14.6453 50.0392 14.5961 49.5882C14.5749 49.2819 14.8988 49.3074 15.0677 49.2734C15.6731 49.1543 16.2997 49.0607 16.8769 48.7969C17.25 48.6183 17.5035 48.2609 17.7851 47.9546C17.8273 47.861 17.8695 47.7674 17.9118 47.6738C17.426 47.9716 16.8347 48.1163 16.2082 48.2524C15.8773 48.2865 14.054 48.7374 14.0118 48.3205C13.9273 47.9631 14.2722 47.9631 14.4764 47.9801C14.7298 47.9801 14.9832 47.9376 15.2296 47.9035C16.0603 47.7844 16.8488 47.6313 17.6302 47.291C17.9329 47.1378 18.1652 46.8655 18.4046 46.6102C18.475 46.4656 18.5383 46.321 18.6087 46.1678C17.8906 46.4826 16.8065 46.5847 16.3278 46.6187C16.0462 46.6017 16.0603 46.0997 16.349 46.1083C16.9614 46.0742 17.5598 45.9636 18.1511 45.802C18.3905 45.7169 18.6157 45.6233 18.834 45.4786C18.8762 45.4446 18.9255 45.4106 18.9818 45.385C19.1015 45.1213 19.2282 44.866 19.3479 44.6022C18.7636 44.8915 18.13 45.0277 17.5105 45.1638C15.5464 45.5382 13.5542 45.4616 11.5831 45.7083C11.4071 45.7083 11.3015 45.4446 11.4211 45.2914C11.5479 45.1298 12.1885 45.1808 12.4208 45.1128C13.6668 44.9936 14.9199 44.9681 16.1659 44.8575C17.3064 44.7043 18.4538 44.5767 19.4816 43.9811C19.5732 43.9216 19.6576 43.845 19.7351 43.7684C19.8407 43.5387 19.9463 43.3089 20.0519 43.0707C20.073 43.0196 20.0941 42.9771 20.1152 42.9261C18.1652 44.0322 12.9206 44.0917 11.8787 44.1002C11.8013 44.1002 11.7309 44.1002 11.6535 44.1002C11.3719 44.1002 11.386 43.5727 11.6746 43.5897C12.9206 43.6152 14.1526 43.5301 15.3916 43.428C16.9051 43.3089 18.4398 43.1473 19.8618 42.5006C20.1223 42.407 20.3053 42.1603 20.5235 41.9901C20.5869 41.8454 20.6432 41.6923 20.7065 41.5477C20.2701 41.7689 19.7773 41.8795 19.3338 41.9816C18.6932 42.1178 18.0455 42.2198 17.3979 42.2794C15.9688 42.407 14.5186 42.6538 13.0896 42.4411C13.0896 42.4411 13.0896 42.4411 13.0825 42.4411C13.0825 42.4411 13.0825 42.4411 13.0896 42.4411C13.0121 42.4411 12.9558 42.39 12.9206 42.3305C12.6813 42.1518 12.6883 41.7093 13.1036 41.6838C14.7298 41.6838 16.349 41.6838 17.954 41.4285C19.8759 41.0712 22.551 39.8715 22.6847 37.472C22.4172 38.2038 21.8963 38.8504 21.3049 39.2248L21.2838 39.2163ZM8.35885 58.1818C8.16878 57.884 8.61933 57.5863 8.73901 57.9352C8.83052 58.2074 8.50669 58.4201 8.35885 58.1818ZM6.53557 43.2749C7.00019 42.9516 7.57042 43.3174 8.07024 43.3259C8.48559 43.343 8.35886 43.9726 7.97168 43.828C7.50002 43.6833 6.81716 43.8279 6.53557 43.2749ZM8.82348 49.1883C8.8446 48.9501 9.1614 48.9926 9.14028 49.2224C9.11916 49.4521 8.80236 49.4181 8.82348 49.1883ZM9.04171 51.5622C8.7742 51.4516 8.92907 50.9666 9.19658 51.0772C9.62601 51.2644 9.44297 51.6984 9.04171 51.5622ZM7.99984 47.3505C7.88017 47.325 7.80976 47.1718 7.83792 47.0442C7.88016 46.823 8.07727 46.8315 8.23214 46.8825C8.73197 46.9421 9.23178 47.0357 9.70345 47.2654C9.16139 47.4611 8.57005 47.5037 8.00687 47.3505H7.99984ZM9.97801 45.5552C9.82313 45.7764 9.55562 45.7764 9.33739 45.7339C9.04172 45.6658 7.09171 45.4786 7.33106 44.9511C7.4085 44.7044 7.64081 44.7979 7.79568 44.866C8.12655 44.9766 8.46447 45.0617 8.79534 45.1297C9.17548 45.2574 9.67528 45.1042 9.96391 45.4701C9.97799 45.4956 10.0062 45.5211 9.97801 45.5552ZM9.80904 44.0066C9.52041 43.9896 9.24586 43.8705 8.99947 43.7088C9.26698 43.6067 9.54859 43.5472 9.83018 43.5046C10.3652 43.3855 10.337 44.1257 9.80904 44.0066ZM11.4564 56.259C11.6535 56.0463 11.9984 56.0888 12.2448 56.1824C12.097 56.4206 11.8506 56.727 11.576 56.6759C11.4282 56.6334 11.3578 56.3951 11.4564 56.259ZM11.8928 57.3821C11.7379 57.4417 11.5619 57.3055 11.5267 57.1268C11.4845 56.9396 11.5971 56.7354 11.7591 56.6929C12.0758 56.6078 12.5334 56.2079 12.7869 56.6078C12.8009 57.1438 12.2237 57.2289 11.8928 57.3821ZM14.7017 46.406C14.9551 46.3635 15.2508 46.2189 15.469 46.4401C15.4971 46.4656 15.5324 46.5082 15.5042 46.5507C15.3634 46.857 15.0044 46.8825 14.7368 46.8995C14.5257 46.8655 14.4905 46.4826 14.7017 46.406ZM11.1536 48.1673C11.2099 48.1928 11.2733 48.1928 11.3367 48.2184C11.4775 48.2694 11.6042 48.363 11.7027 48.4821C11.5479 48.6863 11.2874 48.7374 11.0621 48.6693C10.6749 48.6013 10.7876 47.9631 11.1536 48.1673ZM10.5201 41.9731C10.7312 42.1263 10.3863 42.3815 10.3582 42.0837C10.3582 41.9901 10.4426 41.9391 10.5201 41.9731ZM11.0621 54.1489C10.8298 54.0978 10.5341 54.1829 10.3441 53.9872C10.1821 53.7575 10.4145 53.4766 10.6327 53.5873C10.9424 53.6383 11.2803 53.5873 11.576 53.7319C12.1674 54.0553 11.3367 54.2339 11.0621 54.1403V54.1489ZM11.2944 52.9916C11.0551 52.9491 10.8228 52.9151 10.5905 52.847C10.3229 52.7449 10.4638 52.2514 10.7313 52.362C11.1396 52.4811 11.6112 52.4386 11.9421 52.796C11.7591 52.9491 11.5267 53.0342 11.3015 52.9916H11.2944ZM12.4419 51.358C12.1251 51.4516 11.7943 51.3921 11.4704 51.4261C11.2804 51.4261 11.0832 51.4261 10.8932 51.4431C10.7242 51.4687 10.4778 51.4857 10.4567 51.2219C10.4285 50.7795 11.1818 50.9582 11.4282 50.9156C11.8295 50.9582 12.3434 50.7114 12.6601 51.0857C12.7305 51.2049 12.5193 51.3155 12.4489 51.358H12.4419ZM11.8717 50.0222C11.4915 49.9966 11.1044 50.0562 10.7313 49.9541C10.4638 49.852 10.5904 49.367 10.865 49.4606C11.569 49.5372 12.28 49.5117 12.984 49.5372C13.2304 49.5117 13.4908 49.5712 13.695 49.7499C13.2304 50.2689 12.456 49.9881 11.8717 50.0222ZM12.7517 48.1077C12.9417 48.0992 13.2022 48.0482 13.3148 48.2779C13.3641 48.6268 12.9347 48.6438 12.7305 48.6013C12.5194 48.5332 12.5334 48.1588 12.7517 48.1077ZM11.5056 46.6528C11.8646 46.6358 12.2166 46.6103 12.5757 46.5932C12.9488 46.5932 13.3852 46.4571 13.695 46.7889C13.4908 47.0527 13.174 47.0867 12.8924 47.0952C12.3574 47.1122 11.8295 47.1718 11.2944 47.1633C11.1466 47.1378 11.0551 46.9165 11.1466 46.7719C11.2311 46.6187 11.3789 46.6528 11.5056 46.6528Z" fill="#FD5B54"/>
<path d="M21.6147 36.9021C21.5724 36.817 21.509 36.7319 21.4246 36.6383C21.2556 36.4767 21.0656 36.332 20.8684 36.1959C17.9822 34.8345 14.8213 34.6047 11.7168 34.9111C12.632 34.9876 13.5471 35.0983 14.4623 35.1919C15.4408 35.3535 16.4334 35.4471 17.4049 35.6343C18.5805 35.796 19.728 36.0683 20.8121 36.6554C21.0585 36.783 21.2979 36.9617 21.502 37.1829C21.5443 37.0893 21.5935 36.9957 21.6287 36.8936L21.6147 36.9021Z" fill="#FD5B54"/>
<path d="M0.501953 16.9492C0.501953 16.9492 0.501953 16.9492 0.501953 16.9407C0.501953 16.9407 0.501953 16.9407 0.501953 16.9492ZM5.0989 25.8321C5.0989 25.8321 5.0989 25.8236 5.0989 25.8151C5.0989 25.8151 5.0989 25.8236 5.0989 25.8321ZM9.16084 23.5008H9.2101H9.25938H9.16084ZM5.28194 11.9207V12.0312L5.37346 12.0483L5.40865 11.8781V11.708L5.3101 11.6994L5.28194 11.9377V11.9207ZM23.1628 22.6755C23.1417 22.7605 23.1065 22.8371 23.0784 22.9137L23.0361 23.0158L23.008 23.1009C22.9869 23.169 22.9657 23.2371 22.9376 23.2966C22.9376 23.3392 22.9165 23.3732 22.8953 23.4072C22.4237 24.6069 21.7338 25.713 20.8961 26.6234C20.5793 26.9723 20.2273 27.2701 19.9598 27.4913L19.4248 27.9848C17.9886 29.2696 16.0668 30.7416 13.9338 30.7586C13.3565 30.7416 12.6173 30.648 12.0542 30.146C11.7374 30.4353 11.3713 30.6395 11.0193 30.8352C10.6251 31.0564 10.1886 31.15 9.6536 31.15H9.55506C8.28087 31.133 7.11226 30.3076 6.43644 28.9548V28.9378C6.43644 28.9378 6.42237 28.9122 6.42237 28.8952C4.5146 28.4868 2.69131 26.8191 1.53679 24.4367C0.677947 22.7605 0.389321 21.2546 0.593473 19.5699C0.762427 18.0809 1.24112 16.5408 2.09996 14.7285C2.40267 14.1074 2.7406 13.5033 3.06443 12.9162C3.40937 12.295 3.76839 11.6484 4.08517 10.9847C4.29637 10.5423 4.50053 10.0573 4.62725 9.52977L4.64132 9.45317V9.39361C4.64132 9.39361 4.64131 9.32554 4.63427 9.29151C4.63427 9.24046 4.64836 9.1979 4.66948 9.16386C4.66948 9.1043 4.66948 9.05325 4.66244 9.0022C4.66244 8.96816 4.66244 8.94265 4.66948 8.90861C4.66948 8.85756 4.71172 8.79802 4.77507 8.76398C4.80323 8.75548 4.8173 8.75547 4.83138 8.75547C4.92994 8.75547 4.97923 8.86606 5.02147 8.95115C5.02851 8.97667 5.04257 8.9937 5.04961 9.01071C5.472 9.91262 5.3664 10.9507 5.20449 11.8441C5.19041 11.9632 5.1693 12.0908 5.14818 12.2099C5.12002 12.3971 5.08483 12.5928 5.06371 12.78C5.09187 12.814 5.06371 12.9076 5.04259 12.9502C4.99331 13.3246 4.94402 13.7159 4.89474 14.1073V14.1754C4.90178 14.2265 4.90179 14.269 4.90883 14.3116L4.9229 14.3711C4.95106 14.4817 4.97219 14.5583 4.99331 14.6264C5.07778 14.8731 5.19041 15.1199 5.29601 15.3496C5.35233 15.4687 5.40865 15.5963 5.45793 15.7155C5.69024 16.2685 5.92254 16.8641 6.06334 17.4767C6.21117 18.1234 6.23933 18.8466 6.15486 19.6889C6.1267 20.1824 6.05631 20.676 5.99296 21.1524C5.94368 21.4928 5.90142 21.8246 5.86622 22.165C5.85919 22.2841 5.85215 22.4117 5.84511 22.5393C5.84511 22.667 5.85919 22.7776 5.86622 22.8882C6.08446 25.1174 6.78845 26.5894 8.10488 27.5168C8.51318 27.7891 9.12563 28.1465 9.724 28.1465C9.99152 28.1465 10.2379 28.0699 10.4561 27.9253C10.8152 27.4828 10.8081 26.6064 10.7659 25.9002C10.4984 23.8497 9.94224 21.9097 9.11155 20.157C8.82996 19.5443 8.51316 18.9402 8.19637 18.3701C7.79511 17.6299 7.37977 16.8641 7.05594 16.0473C5.99998 13.5288 5.62688 10.6699 6.00703 8.00671C6.21822 6.64534 6.66173 5.23293 7.3305 3.82051C7.83032 2.83352 8.41461 1.91459 9.06227 1.10628C9.22418 0.910585 9.3861 0.731884 9.54801 0.553204C9.59025 0.510662 9.63953 0.46814 9.70289 0.46814C9.76624 0.46814 9.80849 0.502145 9.83664 0.544688C9.87184 0.595739 9.88593 0.663826 9.88593 0.723386L9.84367 0.927583C9.70287 1.56572 9.55505 2.22091 9.54801 2.86756C9.54097 3.7014 9.724 4.56926 10.0689 5.30099C10.4491 6.07527 10.9067 6.78999 11.3502 7.47918C11.681 7.9982 12.026 8.53426 12.3357 9.08731L12.5329 9.46169C12.8496 10.0488 13.1735 10.6614 13.4621 11.257C13.976 12.3376 14.328 13.4948 14.511 14.686C14.6307 15.4773 14.6307 16.2941 14.6237 16.9152C14.6096 18.2085 14.504 19.5784 14.3139 21.0929C14.2998 21.2205 14.2858 21.3567 14.2646 21.4928C14.2506 21.5694 14.2435 21.6544 14.2365 21.731C14.2224 21.8161 14.1801 22.1224 14.1801 22.1224L14.0464 23.0243C13.793 24.6239 13.4199 26.0704 12.9271 27.3211C12.8074 27.6275 12.6736 27.8912 12.5329 28.1295C12.7581 28.0784 12.9904 27.9933 13.2298 27.8742C13.5888 27.6955 13.8845 27.5423 14.1661 27.3466C15.4614 26.3767 16.5666 24.6069 16.982 22.8542C17.1439 22.1905 17.2002 21.4588 17.1509 20.693C17.1016 19.7996 16.996 18.9998 16.8412 18.268C16.5596 17.0003 16.1231 15.7921 15.6937 14.6774C15.6163 14.4817 15.5388 14.2946 15.4614 14.0989C15.2643 13.6309 15.0672 13.1374 14.9052 12.6439C14.4758 11.3251 14.2576 10.0402 14.2646 8.84053C14.2858 7.80249 14.5533 6.72195 15.032 5.70092C15.0812 5.59031 15.1376 5.48816 15.2009 5.38606C15.2361 5.3265 15.2572 5.28399 15.2924 5.25846C15.3206 5.23294 15.3488 5.22439 15.384 5.22439H15.4403V5.30099V5.34353H15.4262C15.4544 5.36905 15.4755 5.39457 15.4825 5.43711C15.4895 5.46263 15.4966 5.50519 15.4825 5.55624V5.60729C15.4825 5.60729 15.4966 5.6328 15.5036 5.64982L15.5177 5.82852C15.5177 5.82852 15.5318 5.89659 15.5177 5.93914C15.5459 6.25395 15.567 6.56879 15.6092 6.86659C15.6514 7.03676 15.7078 7.23242 15.7993 7.46215C16.5103 8.99369 17.4677 10.27 18.3195 11.308C18.8757 11.9887 19.5092 12.6524 20.2062 13.282C21.248 14.269 22.3955 15.5113 23.0432 17.1875C23.0502 17.213 23.0924 17.3236 23.0924 17.3236L23.1277 17.4087C23.36 17.9872 23.5219 18.6084 23.5923 19.2465C23.6979 20.3271 23.5641 21.4758 23.184 22.6585L23.1628 22.6755ZM14.6941 7.81955C14.7433 7.51324 14.8137 7.1984 14.9052 6.89209C14.8982 6.91762 14.8841 6.95168 14.8771 6.97721L14.8419 7.1048C14.8208 7.18989 14.7926 7.27496 14.7715 7.36005C14.7433 7.5132 14.7152 7.66639 14.6941 7.81955ZM16.5033 14.9752C16.7426 15.4772 16.989 15.9963 17.2143 16.5238C17.9464 18.1574 18.7489 20.1229 19.115 22.3011L19.1502 22.5648C19.2206 23.0754 19.298 23.6029 19.284 24.1304C19.3403 23.9773 19.3896 23.8326 19.4318 23.688C19.6993 22.7265 19.7627 21.5864 19.6289 20.2165C19.4248 18.4297 18.9461 16.745 18.235 15.3411C18.045 14.9667 17.8549 14.5923 17.6648 14.2179C17.0172 12.9587 16.3554 11.6569 15.8415 10.287C15.5177 9.44465 15.1939 8.54275 15.0672 7.58128C15.046 7.39409 15.039 7.23246 15.032 7.07931C14.8912 7.5728 14.8067 8.11732 14.7645 8.74695C14.7222 9.8871 14.8982 11.0698 15.2713 12.1759C15.6233 13.1459 16.0668 14.0818 16.4962 14.9923L16.5033 14.9752ZM18.7982 24.6835C18.7912 24.7771 18.7701 25.0324 18.7208 25.3131C18.8475 25.0919 18.9672 24.8792 19.0657 24.658C19.0868 24.4878 19.1009 24.2836 19.108 24.0538C19.115 23.7816 19.0869 23.5263 19.0587 23.254L19.0376 23.0754C18.9672 22.4543 18.8757 21.9097 18.7489 21.4077C18.4955 20.3016 18.1294 19.238 17.7422 18.2425C17.7563 18.2766 17.7634 18.3106 17.7775 18.3446C17.9957 19.0338 18.1717 19.7145 18.3266 20.3612C18.6152 21.6374 18.8968 23.1434 18.7982 24.692V24.6835ZM16.8693 16.6769C17.2847 17.6384 17.5381 18.6679 17.7352 19.5528C18.228 21.8331 18.2773 23.6455 17.9112 25.2536C17.7986 25.7726 17.6226 26.3171 17.3551 26.9808C17.348 26.9978 17.341 27.0233 17.3269 27.0403C17.3691 26.9978 17.4184 26.9638 17.4607 26.9212C17.8126 26.5809 18.1365 26.198 18.4251 25.7811C18.4251 25.7641 18.4392 25.7301 18.4533 25.696C18.4885 25.5684 18.5166 25.4408 18.5448 25.3131C18.6997 24.4112 18.6856 23.4242 18.4885 22.1139C18.2139 20.4547 17.8478 19.0253 17.3691 17.7405C17.0735 17.0173 16.7356 16.294 16.4047 15.5963C16.3484 15.4687 16.285 15.3496 16.2287 15.2219C16.278 15.3496 16.3273 15.4857 16.3766 15.6134L16.4188 15.6985C16.5737 16.0218 16.7356 16.3451 16.8764 16.6854L16.8693 16.6769ZM17.2706 18.9828C17.5381 20.0719 17.6296 21.2801 17.5311 22.5989C17.4607 23.8837 17.0876 25.2365 16.461 26.5043C16.1794 27.1084 15.8134 27.687 15.3347 28.2571C15.3347 28.2571 15.1728 28.4443 15.1376 28.4783C15.7359 28.2145 16.3625 27.8232 16.9679 27.3382C17.1017 27.0999 17.2143 26.8617 17.2988 26.6149C17.7141 25.5343 17.9394 24.4537 17.9605 23.4157C18.0027 22.267 17.869 21.0078 17.5522 19.5699C17.3903 18.8381 17.1861 18.0043 16.8764 17.1959C17.0312 17.749 17.165 18.3446 17.2565 18.9743L17.2706 18.9828ZM16.0809 26.5469C15.6233 27.3467 15.1235 28.0444 14.5814 28.6314C14.5814 28.6314 14.504 28.7166 14.4899 28.7251C14.5533 28.7081 14.6096 28.691 14.6729 28.674C14.7363 28.623 14.8067 28.5549 14.8771 28.4868C15.0531 28.3081 15.2361 28.0954 15.4191 27.8572C16.0527 27.0319 16.5666 26.0023 16.9538 24.8026C17.0383 24.5133 17.1157 24.224 17.172 23.9262C16.9397 24.8367 16.5666 25.7385 16.0809 26.5554V26.5469ZM14.8982 27.6955C14.5181 28.1465 14.1661 28.5379 13.7507 28.8527C13.7507 28.8527 13.7507 28.8527 13.7437 28.8527C13.8563 28.8442 13.976 28.8272 14.1098 28.8016C14.1872 28.7336 14.2787 28.6485 14.3702 28.5549C14.9123 27.9848 15.4121 27.3041 15.8627 26.5299C16.0386 26.2406 16.2006 25.9428 16.3484 25.6365L16.285 25.7386C16.1513 26.0023 16.0105 26.2406 15.8627 26.4703C15.6022 26.8532 15.3065 27.2106 15.0179 27.5509L14.9052 27.687L14.8982 27.6955ZM13.2579 28.8612C13.3002 28.8612 13.3495 28.8612 13.3917 28.8612C13.4691 28.8016 13.5677 28.7336 13.6592 28.6655C13.9619 28.4358 14.2365 28.155 14.4688 27.8912C14.3773 27.9593 14.2928 28.0274 14.2083 28.0869L14.152 28.1465C14.1098 28.189 14.0675 28.2316 14.0253 28.2741C13.9056 28.3762 13.7859 28.4698 13.6592 28.5634L13.5607 28.64C13.4621 28.7165 13.3565 28.7931 13.2509 28.8612H13.2579ZM12.7652 28.8187C12.8145 28.8187 12.8637 28.8356 12.92 28.8356C13.0045 28.7761 13.082 28.7335 13.1594 28.6825C13.0256 28.7335 12.8989 28.7761 12.7652 28.8101V28.8187ZM13.8 13.2054C13.9338 13.7074 14.0394 14.201 14.1379 14.6774C14.0605 14.1925 13.9479 13.7074 13.8 13.2054ZM11.498 8.45769C11.8852 9.29153 12.209 10.0403 12.5047 10.772C13.3847 12.7545 13.9126 14.6008 14.1168 16.4132C14.152 16.7025 14.1942 17.0003 14.2294 17.2896C14.2294 17.1705 14.2154 17.0428 14.2154 16.9237C14.2013 16.6003 14.1872 16.26 14.152 15.9367C13.9549 14.5328 13.6592 13.231 13.272 12.0908C13.0327 11.3931 12.737 10.7465 12.4836 10.2019L12.4413 10.1168C12.1597 9.53823 11.8359 8.98521 11.498 8.44917V8.45769ZM10.2027 6.3816C10.2027 6.3816 10.2309 6.45818 10.2449 6.49221C10.5969 7.39412 11.0052 8.27046 11.4065 9.11281L11.667 9.65737C12.2231 10.8656 12.92 12.4822 13.3283 14.235C13.6592 15.6134 13.8563 16.745 13.9549 17.783C13.969 17.8001 13.976 17.8256 13.983 17.8511C13.9901 17.9192 13.9971 17.9872 14.0042 18.0468C14.0042 18.1064 14.0112 18.1659 14.0182 18.234C14.0675 18.6339 14.1027 19.0253 14.1379 19.3997C14.152 19.221 14.1661 19.0508 14.1801 18.8722C14.159 18.251 14.1027 17.5874 14.0112 16.9152C13.8704 15.6729 13.6944 14.7455 13.4551 13.9117C13.1805 12.8226 12.7652 11.8186 12.4413 11.0613L12.4202 11.0103C12.0189 10.0488 11.6036 9.05325 11.146 8.10029C11.0475 7.88758 10.9419 7.67486 10.8433 7.46215L10.7025 7.17289C10.5195 6.8836 10.3576 6.61983 10.2168 6.37308L10.2027 6.3816ZM9.16084 3.94811C9.12564 5.03721 9.25234 6.15185 9.54097 7.21542C9.85775 8.33004 10.3083 9.40214 10.7518 10.4317C10.8785 10.7295 11.0052 11.0273 11.1249 11.3251C11.6529 12.6694 12.0893 14.1499 12.4624 15.8516C13.0608 18.7786 13.272 21.3737 13.1101 23.7816C13.1101 23.8071 13.1101 23.8326 13.1101 23.8667C13.0608 24.5388 12.9904 25.1685 12.8919 25.7641C13.0045 25.4067 13.096 25.0494 13.1735 24.7346L13.1946 24.6409C13.2368 24.4537 13.272 24.2751 13.3072 24.0879C13.5747 22.8286 13.7155 21.7991 13.7578 20.8461C13.7859 20.3697 13.807 19.9442 13.8141 19.5613V19.4847C13.8141 19.4847 13.8141 19.4507 13.8141 19.4252C13.8141 19.3911 13.8141 19.3571 13.8141 19.3316C13.8141 19.1189 13.8141 18.8977 13.807 18.6765L13.793 18.4893C13.793 18.4893 13.793 18.4042 13.793 18.3616L13.7789 18.2255C13.7648 18.1234 13.7437 17.8937 13.7437 17.8937V17.8596C13.6662 16.9492 13.4973 15.9452 13.2228 14.7285C12.9341 13.3926 12.4836 12.0483 11.843 10.6018C11.6177 10.0913 11.3783 9.57229 11.146 9.0788C10.8292 8.40662 10.4984 7.70891 10.2097 6.99419C9.9352 6.3135 9.66065 5.63284 9.4213 4.94365C9.30867 4.62032 9.21715 4.29698 9.16084 3.96514V3.94811ZM6.9574 5.56476C7.21787 4.91811 7.53464 4.27144 7.90774 3.6333C8.22453 3.08875 8.57652 2.56122 8.9637 2.0422C9.00594 1.91457 9.04818 1.77845 9.09746 1.63381C8.18933 2.79948 7.46425 4.13531 6.95035 5.55624L6.9574 5.56476ZM6.95035 6.07525C7.09818 5.75192 7.27418 5.42864 7.46426 5.10531C7.8092 4.50121 8.11894 4.04173 8.44277 3.65033C8.47797 3.60779 8.52021 3.56523 8.55541 3.52268L8.5906 3.48867C8.65395 3.18236 8.72437 2.88458 8.8018 2.6038C8.52725 2.99519 8.27382 3.40359 8.03447 3.812C7.54873 4.66285 7.21083 5.38606 6.9574 6.07525H6.95035ZM7.36569 14.3966C7.42201 14.5328 7.47833 14.6689 7.54168 14.805C8.12598 16.1409 8.76659 17.4512 9.31569 18.5573C9.85775 19.6379 10.4773 20.9397 10.9278 22.3096C11.0263 22.6159 11.4699 23.9688 11.6318 25.0664C11.6881 22.8797 10.8011 20.5483 10.0126 18.4807C9.88592 18.1404 9.75921 17.8171 9.63953 17.4938C8.75957 15.0518 8.23158 13.0098 7.98519 11.0613C7.87256 10.2019 7.77399 9.27451 7.82327 8.35559C7.85847 7.56429 7.92887 6.90909 8.02743 6.28796C8.06263 6.03271 8.11895 5.76895 8.16823 5.54772C8.25975 4.98616 8.37941 4.40762 8.48501 3.8886C8.44277 3.93965 8.40757 3.99068 8.37237 4.03323C8.09078 4.42462 7.82327 4.83303 7.58392 5.25846C5.72543 8.37259 6.11966 11.0613 7.36569 14.3881V14.3966ZM11.667 26.5213C11.667 26.5213 11.7162 26.4533 11.7374 26.4107L11.7585 26.3597C11.7866 26.3001 11.8078 26.2405 11.8289 26.181C11.9556 25.8491 12.0471 25.5769 12.1316 25.2876C12.1457 25.228 12.1668 25.1685 12.1879 25.1004C12.209 24.8962 12.2231 24.675 12.2231 24.4708C12.209 23.0158 11.9204 21.4928 11.3291 19.8081C11.1038 19.1699 10.8363 18.5403 10.5829 17.9362C10.4632 17.6469 10.3435 17.3662 10.2238 17.0769C9.67472 15.8006 9.19602 14.5073 8.75252 13.1204C8.55541 12.5333 8.40054 11.9632 8.28087 11.4186C8.55542 13.2565 9.06932 15.1794 9.86481 17.3661C9.99152 17.698 10.1182 18.0298 10.2449 18.3701C10.8644 19.9868 11.498 21.663 11.7655 23.4498C11.8852 24.3347 11.9838 25.4663 11.674 26.5213H11.667ZM8.70324 18.6509C8.44981 18.1234 8.21046 17.5874 7.96407 17.0598C7.8092 16.711 7.64729 16.3706 7.48538 16.0303C7.22491 15.4517 6.97147 14.8816 6.75324 14.286C7.21786 15.8856 7.95702 17.3236 8.70324 18.6509ZM9.29457 19.4422C9.64656 20.1484 10.0056 20.8887 10.2942 21.646C10.7096 22.65 11.1249 23.7475 11.3572 24.9132C11.4135 25.2025 11.4769 25.5088 11.5051 25.8321C11.5051 25.5684 11.4839 25.3046 11.4417 25.0494C11.3643 24.5304 11.2305 24.0198 11.132 23.6284C10.8292 22.5053 10.4139 21.3481 9.89295 20.191C9.57616 19.5188 9.25234 18.8551 8.92851 18.183C8.65396 17.6299 8.38646 17.0683 8.11895 16.5068C8.09783 16.4982 8.0767 16.4812 8.06966 16.4557L8.02038 16.3536C7.94998 16.2004 7.87959 16.0558 7.8092 15.9027C7.59801 15.4432 7.38682 14.9582 7.19674 14.4562C6.69692 13.248 6.3731 12.1334 6.21119 11.0528C6.22527 11.2144 6.2323 11.3761 6.25342 11.5378C6.27454 11.7165 6.3027 11.8866 6.3379 12.0653C6.60541 13.6139 7.23194 15.0348 7.85143 16.3621C7.97111 16.6259 8.09079 16.8811 8.21047 17.1449C8.51318 17.8171 8.82997 18.5063 9.16084 19.1699L9.30162 19.4507L9.29457 19.4422ZM10.956 24.7175C11.1531 25.4152 11.3291 26.1044 11.3009 26.7851C11.4135 26.0874 11.2868 25.3982 11.1531 24.8111C10.9771 23.9688 10.6884 23.0839 10.252 22.0288L10.2027 21.9097C10.0408 21.5013 9.87184 21.0759 9.68177 20.6674C9.63953 20.5739 9.59025 20.4718 9.54801 20.3782C9.81552 20.9823 10.0338 21.5523 10.2168 22.1139C10.3717 22.5819 10.5124 23.0754 10.6392 23.6284C10.7448 23.9858 10.8504 24.3517 10.956 24.709V24.7175ZM11.0052 27.4318C11.0052 27.4318 11.0193 27.4062 11.0264 27.3892C11.1601 26.9128 11.146 26.4192 11.0616 25.9172C11.0967 26.4022 11.0968 26.9638 11.0052 27.4318ZM10.0619 28.9463C9.99856 28.9718 9.9352 28.9973 9.87888 29.0229C10.0408 29.2356 10.259 29.3972 10.5406 29.5164C10.6885 29.5929 10.8363 29.644 10.9911 29.6695C10.7448 29.5929 10.5125 29.4483 10.3224 29.2696C10.2238 29.176 10.1464 29.0654 10.0689 28.9548L10.0619 28.9463ZM9.68177 29.0824C9.68177 29.0824 9.61841 29.0994 9.59025 29.1079C9.61841 29.159 9.6536 29.2016 9.69584 29.2526C9.92815 29.5079 10.2309 29.678 10.5688 29.7546C10.1746 29.6014 9.87888 29.3802 9.68177 29.0739V29.0824ZM5.57057 20.0123C5.57057 19.9697 5.5776 19.9187 5.58464 19.8762C5.60576 19.6975 5.61984 19.5188 5.62688 19.3316C5.62688 19.1784 5.61984 19.0338 5.60576 18.8807C5.60576 19.0083 5.59169 19.1274 5.59169 19.255C5.58465 19.5018 5.57759 19.757 5.57759 20.0123H5.57057ZM5.50017 24.9388L5.45088 24.8536C5.41568 24.7941 5.38752 24.7431 5.35936 24.6835C5.27489 24.5048 5.19041 24.3091 5.0989 24.0624C4.46532 22.5478 4.1415 20.7611 4.16262 18.8892C4.16262 18.5233 4.17669 18.1574 4.19781 17.8086L4.21188 17.5959C4.21188 17.4682 4.21894 17.3406 4.22598 17.213C4.22598 17.1704 4.24005 17.1364 4.26821 17.1024C4.26821 17.0003 4.26821 16.8641 4.28933 16.7195C4.28933 16.7195 4.31045 16.4557 4.31045 16.3877C4.33861 16.0729 4.3738 15.758 4.41604 15.4517C4.38084 15.6474 4.35268 15.8346 4.32452 16.0133C3.88806 18.9232 4.02885 21.7651 4.73986 24.2496C5.23264 26.1129 6.21822 27.5084 7.65432 28.4017C7.93591 28.5634 8.23159 28.691 8.54134 28.7676C8.64693 28.7676 8.75252 28.7761 8.86516 28.7761C9.02707 28.7761 9.16083 28.7591 9.28755 28.7335C9.30163 28.7335 9.3157 28.7335 9.32274 28.7335C9.34385 28.7335 9.35794 28.7336 9.37202 28.7421C9.56913 28.6995 9.76625 28.6315 9.9704 28.5464C9.87888 28.5634 9.78033 28.5719 9.68882 28.5719C9.38611 28.5719 9.06227 28.4953 8.75957 28.3507C8.10487 28.0869 7.4924 27.619 6.98554 27.0234L6.91516 26.9468C6.83772 26.8532 6.77437 26.7766 6.71805 26.7C6.69693 26.6745 6.59836 26.5469 6.59836 26.5469C6.51389 26.4618 6.43645 26.3682 6.35901 26.2661C6.05631 25.9087 5.78176 25.4748 5.50721 24.9302L5.50017 24.9388ZM4.64132 16.7109C4.6554 16.5067 4.66948 16.3026 4.68356 16.0984C4.69763 15.9282 4.71171 15.7665 4.71875 15.5963C4.71171 15.5708 4.69764 15.5453 4.6906 15.5198C4.6906 15.5198 4.65539 15.8346 4.63427 15.9877C4.57795 16.4812 4.53572 16.9237 4.50756 17.3746C4.49348 17.5959 4.48644 17.8256 4.4794 18.0468V18.1999C4.4794 18.1999 4.4794 18.268 4.46533 18.3106C4.46533 18.3361 4.45124 18.3531 4.43716 18.3786C4.43716 18.5318 4.43716 18.7105 4.43716 18.8892C4.42308 19.9357 4.52165 20.9397 4.73284 21.9012C4.46533 20.1059 4.52868 18.2851 4.63427 16.7025L4.64132 16.7109ZM5.38753 21.8331C5.38753 21.748 5.40161 21.663 5.40865 21.5779C5.37345 20.7355 5.38753 19.8932 5.40865 19.2465C5.40865 18.8807 5.44385 18.5063 5.47905 18.1489L5.49312 17.9957C5.46496 17.8426 5.42977 17.6724 5.38753 17.5108C5.35937 18.1489 5.33824 18.8041 5.33824 19.4422C5.31009 20.3271 5.33122 21.1099 5.39457 21.8331H5.38753ZM5.12002 21.0589C5.15521 21.6204 5.2045 22.1565 5.28194 22.6585C5.28194 22.6074 5.24673 22.2415 5.23265 22.1139C5.15522 21.246 5.12706 20.5313 5.14818 19.8591C5.15522 18.8296 5.18337 17.9107 5.22561 17.0513C5.22561 17.0173 5.22561 16.9918 5.22561 16.9577C5.19041 16.8386 5.14818 16.7195 5.10594 16.6088C5.10594 16.745 5.10593 16.8982 5.09185 17.0683C5.02145 18.685 5.0285 19.9187 5.12002 21.0589ZM4.85955 16.175C4.83843 16.4728 4.81027 16.7706 4.79619 17.0769C4.71876 18.5829 4.65541 20.3356 4.937 22.0033C5.02147 22.5138 5.12002 22.9903 5.2397 23.4412C5.12706 22.9137 5.04962 22.3607 4.99331 21.7906C4.81027 19.9868 4.86659 18.1404 4.92995 16.5578C4.92995 16.4132 4.92994 16.2685 4.91586 16.1324C4.90178 16.0983 4.88771 16.0643 4.86659 16.0218L4.8525 16.1834L4.85955 16.175ZM6.37309 28.4868C5.27489 27.7976 4.31045 26.7341 3.64871 25.4663C2.91658 24.0624 2.72652 22.3436 2.64908 21.1779C2.62093 20.6164 2.62796 19.9527 2.66316 19.221C2.74059 17.7915 3.05737 16.3876 3.3812 15.0858C3.522 14.4987 3.69095 13.9117 3.84583 13.3501C4.0711 12.5588 4.30341 11.7505 4.46533 10.9166C4.45829 10.9421 4.38085 11.1038 4.38085 11.1038C4.04998 11.81 3.66984 12.4992 3.30377 13.1629C2.98699 13.733 2.66315 14.3201 2.36748 14.9242C1.50863 16.728 1.03698 18.251 0.882105 19.7315C0.727231 21.0418 0.945452 22.4032 1.48751 23.5774C2.25484 25.3556 3.28969 26.734 4.46533 27.5764C5.03554 27.9763 5.54944 28.2401 6.0211 28.3932C6.1267 28.4273 6.23933 28.4528 6.37309 28.4868ZM7.5769 28.6314C6.69693 28.1209 5.86623 27.2616 5.30305 26.2576C4.84547 25.4493 4.585 24.5389 4.40197 23.8327C4.21894 23.1264 4.08518 22.3692 4.0007 21.5949C3.74727 19.4337 3.85287 17.1534 4.3175 14.8221C4.36678 14.5838 4.41605 14.3541 4.47237 14.1158L4.49349 14.0393C4.50757 13.3926 4.64835 12.7545 4.76803 12.2695C4.90882 11.5803 5.07075 10.7379 4.95812 9.96367C4.94404 10.1423 4.92291 10.304 4.90883 10.4401C4.75396 11.4697 4.46533 12.4822 4.18374 13.4607L4.1415 13.5968C3.50089 15.9112 2.96585 18.0128 2.97993 20.208C2.97289 21.7055 3.14889 23.8241 4.04294 25.4238C4.90178 26.9723 6.24637 28.1805 7.58392 28.6229L7.5769 28.6314ZM7.5769 29.5333C7.4713 29.4057 7.3657 29.2696 7.26715 29.125C7.25307 29.0994 7.23194 29.0739 7.21786 29.0484C7.18266 28.9973 7.14746 28.9548 7.1193 28.8952V28.8782C7.1193 28.8782 7.05595 28.8527 7.04187 28.8442C7.12635 28.9718 7.21083 29.1079 7.30938 29.2356C7.39386 29.3377 7.47834 29.4313 7.5769 29.5249V29.5333ZM8.07671 29.7886C7.8796 29.5674 7.69656 29.3207 7.54168 29.0399C7.49945 29.0314 7.45721 29.0143 7.41497 28.9973C7.55577 29.2015 7.69657 29.3802 7.83736 29.5333C7.9148 29.6184 7.99926 29.7036 8.08374 29.7886H8.07671ZM9.0482 30.3246C8.62581 30.0609 8.24566 29.678 7.94295 29.2016L7.88662 29.1164C7.88662 29.1164 7.82328 29.0995 7.78808 29.0995C8.00631 29.4398 8.25271 29.7291 8.52022 29.9418C8.67509 30.0694 8.85108 30.2056 9.04115 30.3162L9.0482 30.3246ZM9.14674 30.146C9.09042 30.1035 9.03411 30.0609 8.9778 30.0098C8.71733 29.8056 8.48502 29.5334 8.30199 29.2356C8.29495 29.2186 8.28086 29.2015 8.27382 29.1845C8.23862 29.1845 8.19638 29.176 8.15414 29.1675C8.35829 29.4653 8.54836 29.678 8.74547 29.8482C8.87219 29.9588 9.00595 30.0609 9.14674 30.146ZM10.2942 30.5204H10.2379C10.1746 30.5204 10.1112 30.5204 10.0478 30.5033C10.0689 30.5033 10.0901 30.5033 10.1112 30.5119C10.1464 30.5119 10.1886 30.5119 10.2238 30.5119C10.2449 30.5119 10.2731 30.5119 10.2942 30.5119V30.5204ZM11.2235 30.0779C11.146 30.0949 11.0686 30.1035 10.9982 30.1035C10.9982 30.1035 10.9489 30.1035 10.9278 30.1035C10.2168 30.0694 9.62544 29.7206 9.34385 29.176H9.29457C9.29457 29.176 9.25235 29.193 9.22419 29.2016L9.1397 29.2185C9.05522 29.2356 8.97076 29.2441 8.89332 29.2441H8.82997C8.82997 29.2441 8.78067 29.2611 8.74547 29.2611C8.71731 29.2611 8.69621 29.2611 8.67509 29.2526V29.2696C8.75957 29.4142 8.84403 29.5589 8.94258 29.678C9.28753 30.0694 9.78031 30.2906 10.3294 30.2906H10.3787C10.7096 30.2906 10.9982 30.2226 11.2375 30.0949L11.2235 30.0779ZM14.9475 29.9503C14.687 29.9929 14.4265 30.0098 14.159 30.0098H14.0323C13.5959 29.9928 13.1383 29.9588 12.7018 29.8141C12.7441 29.8397 12.7863 29.8652 12.8356 29.8907C13.1594 30.0609 13.5184 30.095 13.793 30.1035C14.159 30.1035 14.5392 30.0524 14.9475 29.9503ZM21.6352 22.8456C21.7901 21.1865 21.5648 19.3742 20.9805 17.6129C20.4666 16.1154 19.5867 14.8561 18.7419 13.6394C18.5377 13.3501 18.3336 13.0608 18.1365 12.763C17.5381 11.8781 17.0313 11.0613 16.5737 10.2615C16.1935 9.5638 15.7782 8.72145 15.5459 7.81955L15.5107 7.75146C15.5107 7.75146 15.4755 7.6834 15.4614 7.64936C15.4403 7.60682 15.4191 7.55574 15.398 7.5132C15.4262 7.70039 15.4684 7.8876 15.5036 8.07479H15.5107L15.5529 8.04924L15.5811 8.14288L15.5177 8.16837C15.8275 9.53825 16.4047 10.8145 16.9608 12.0483L17.0031 12.1504C17.2636 12.7034 17.5452 13.2565 17.8267 13.7841C18.1858 14.4818 18.5659 15.1965 18.8827 15.9452C19.1924 16.6514 19.4318 17.4087 19.6148 18.2085C19.8964 19.4337 20.0372 20.5654 20.0231 21.5779C20.0865 24.1134 18.8616 26.5213 16.7426 28.0103C15.7923 28.691 14.9334 29.0909 14.1168 29.2441C13.9197 29.2781 13.7085 29.2951 13.4903 29.2951C13.272 29.2951 13.0397 29.2781 12.7792 29.2441C12.5399 29.2101 12.2231 29.1505 11.9345 28.9718C11.9063 28.9463 11.8782 28.9293 11.85 28.9122C11.7655 28.8612 11.667 28.7931 11.6247 28.674H11.6106C11.5191 28.5634 11.5966 28.4443 11.6388 28.3847C11.6529 28.3592 11.674 28.3336 11.674 28.3166C11.6881 28.2826 11.7022 28.2486 11.7233 28.2231L11.8148 28.0444C12.0753 27.5509 12.2794 27.0999 12.4202 26.6745C12.6525 25.8236 12.7511 24.9302 12.8496 23.9432C12.8496 23.9177 12.8567 23.8922 12.8567 23.8582C12.8567 23.7986 12.8637 23.7305 12.906 23.6795C12.9834 22.2926 12.9412 20.8121 12.7722 19.2976C12.554 17.1364 12.1034 15.0007 11.4487 12.9417C11.1742 12.0398 10.8011 11.1634 10.442 10.3211C9.98447 9.24048 9.51282 8.12582 9.22419 6.93462C8.92852 5.64983 8.85107 4.33104 8.99187 3.08879C8.90035 3.43764 8.82292 3.80347 8.7314 4.27144L8.70324 4.40761C8.57652 5.05426 8.44278 5.71793 8.36534 6.3816C8.17527 8.21094 8.22453 9.75096 8.50612 11.0868C8.97779 13.231 9.78737 15.2475 10.5688 17.1279C10.6673 17.3576 10.7659 17.5959 10.8644 17.8256C11.139 18.4808 11.4276 19.1614 11.667 19.8506C11.9978 20.7951 12.2442 21.7906 12.3991 22.8116C12.4906 23.4668 12.5821 24.3262 12.4906 25.16C12.4625 25.3897 12.4273 25.5939 12.385 25.7811C12.3146 26.0619 12.1879 26.3426 11.9908 26.6575C11.7303 27.2531 11.3924 27.7891 10.9911 28.2656C10.7729 28.5123 10.5125 28.7166 10.2168 28.8782C10.5125 29.2866 10.9489 29.5333 11.3783 29.5333C11.5332 29.5333 11.6881 29.4993 11.8289 29.4313C11.9063 29.3972 11.9767 29.3547 12.0401 29.3122C12.0542 29.3037 12.0682 29.2866 12.0893 29.2781C12.0893 29.2781 12.1105 29.2611 12.1386 29.2611H12.1597C12.1597 29.2611 12.2161 29.3036 12.2231 29.3462C12.5258 29.5249 12.8426 29.6355 13.1594 29.695C13.448 29.7461 13.7507 29.7716 14.0605 29.7716C14.7433 29.7716 15.4825 29.644 16.2498 29.3887C16.5244 29.3121 16.806 29.2186 17.1017 29.0909C17.2495 29.0059 17.3973 28.9123 17.5381 28.8187C17.8971 28.5634 18.2843 28.2656 18.7208 27.9082C18.939 27.6955 19.1713 27.4913 19.4107 27.2786C19.6078 27.0999 19.8049 26.9212 20.002 26.7426C20.3329 26.3682 20.5652 26.0534 20.7482 25.73C21.2128 24.8367 21.5156 23.8411 21.6211 22.8456H21.6352ZM20.4878 15.0433C19.9387 14.0989 19.2699 13.2565 18.6222 12.4397C18.4181 12.1759 18.2069 11.9207 18.0027 11.6484L17.876 11.4697C17.5874 11.0783 17.3058 10.6784 17.0242 10.2785C16.7145 9.85305 16.447 9.44467 16.2006 9.03626C16.5455 9.81054 16.982 10.5423 17.4044 11.2315C17.8267 11.9377 18.2984 12.6184 18.763 13.2735C19.5515 14.4051 20.3681 15.5793 20.9453 16.9237C21.4452 18.1489 21.7479 19.5018 21.8464 20.9397C21.9661 22.4032 21.7831 23.8071 21.3044 24.9983C21.234 25.2025 21.1565 25.3982 21.058 25.5939C21.1213 25.5088 21.1777 25.4237 21.234 25.3472C21.4663 25.0153 21.6564 24.6495 21.8464 24.3006C21.952 24.1049 22.0576 23.9092 22.1632 23.722C22.2688 23.3732 22.3462 22.9903 22.3885 22.5989C22.6912 19.5614 21.5156 16.8131 20.4807 15.0433H20.4878ZM22.1139 16.5153C22.0435 16.3961 21.9802 16.2771 21.9098 16.1664C21.7619 15.9112 21.6141 15.6474 21.4452 15.4092C21.248 15.1369 21.0157 14.8986 20.7975 14.6604C20.5722 14.4307 20.361 14.2009 20.1498 13.9712C20.0231 13.8351 19.8964 13.6904 19.7627 13.5543C20.9594 15.1879 21.7901 16.9152 22.2477 18.6935C22.5997 19.9782 22.7264 21.3481 22.6067 22.5393C22.656 22.3777 22.7053 22.2075 22.7546 22.0458C22.8953 21.5438 22.9798 20.9822 23.0291 20.276C23.1347 18.9657 22.8249 17.698 22.1139 16.5153Z" fill="#FD5B54"/>
</svg>
