<svg width="138" height="26" viewBox="0 0 138 26" fill="none" xmlns="http://www.w3.org/2000/svg">
<path d="M107.562 8.02204C107.44 6.73753 107.182 5.73289 106.773 5.01529C106.651 4.82153 106.55 4.64213 106.471 4.49144C105.883 3.57291 105.137 2.94859 104.232 2.58979C103.953 2.48215 103.666 2.39604 103.386 2.34581C102.173 2.08029 100.853 2.19511 99.4174 2.69025C98.994 2.83377 98.3912 3.23563 97.6018 3.88147C95.7648 5.43867 94.6525 6.99587 94.2721 8.57459C94.1071 9.24914 94.0138 9.75863 93.9708 10.1031C93.9277 10.4691 94.021 11.1149 94.2434 12.0334C94.3654 12.5716 94.6597 13.1744 95.1189 13.8561C95.7432 14.746 96.1164 15.4707 96.2384 16.0305C96.3173 16.3749 96.3676 16.6763 96.3891 16.9275C96.4465 17.5877 96.3675 18.2981 96.1451 19.0659C96.102 19.2166 96.0446 19.3673 95.9657 19.4965C95.7217 19.8409 95.4777 20.1854 95.2409 20.5298C95.0185 20.8384 94.3511 21.6924 93.246 23.0989C93.167 23.1921 93.1742 23.3285 93.2747 23.5007C93.4397 23.7375 93.612 23.8021 93.7914 23.7088C94.0569 23.5796 94.3224 23.4146 94.6094 23.2065C95.2122 22.7544 95.7504 22.575 96.0662 22.3597C96.4178 22.1229 96.6331 21.7426 97.4009 21.7785C98.3266 21.8359 99.0227 21.9363 99.4891 22.0799C99.5465 22.1014 100.537 22.6396 100.601 22.6611C100.774 22.7903 100.228 22.9195 100.4 23.0486C100.802 23.4074 101.147 23.5581 101.427 23.5079C101.699 23.4935 101.972 23.4792 102.245 23.4648C103.013 23.4792 103.558 23.429 103.881 23.2926C104.584 22.9984 105.101 22.5678 105.424 22.0009C105.452 21.7928 105.481 21.5919 105.517 21.3838C105.574 21.2977 105.639 21.2116 105.696 21.1254C106.586 19.6257 107.189 18.3053 107.512 17.1643C107.569 16.9705 107.62 16.7768 107.663 16.6046C107.763 16.1094 107.835 15.0545 107.878 13.4328C107.878 13.0955 107.885 12.8228 107.907 12.6003C107.928 11.4163 107.856 10.2394 107.698 9.07691C107.655 8.81858 107.62 8.46695 107.576 8.01486L107.562 8.02204ZM105.503 16.2673C105.445 16.9705 105.295 17.7958 105.051 18.7358C105.029 18.8507 105 18.9798 104.957 19.1162C104.778 19.9342 104.563 20.5155 104.319 20.8384C104.096 21.1254 103.881 21.2905 103.68 21.3264C103.579 21.3479 103.479 21.3407 103.379 21.3264C103.027 21.1542 102.675 20.9819 102.316 20.8097C102.051 20.7451 101.384 20.6518 100.322 20.5155C100.243 20.5155 100.149 20.5011 100.049 20.4796C99.159 20.5442 98.2764 20.6088 97.3865 20.6734C96.8196 20.6877 96.6833 20.5298 96.9632 20.2069C97.0206 20.1423 97.0851 20.0706 97.1426 20.006C97.5875 19.4678 97.9678 18.8722 98.2907 18.2192C98.6926 17.3867 98.9437 16.662 99.0442 16.0448C99.0657 15.9157 99.0873 15.7937 99.1016 15.6645C99.1447 15.2555 99.1016 14.8608 98.9796 14.4733C98.915 14.3011 98.8576 14.136 98.8002 13.9781C98.4845 13.5045 98.1759 13.0309 97.8602 12.5501C97.8027 12.4353 97.731 12.3205 97.6449 12.2057C97.2 11.5455 96.9416 11.0862 96.8555 10.8135C96.7407 10.426 96.6546 10.1533 96.6115 10.0026C96.3317 8.9908 96.3173 8.12968 96.5828 7.42643C96.8842 6.65142 97.1713 6.07016 97.4296 5.67548C97.9104 4.93635 98.6926 4.42685 99.7618 4.16134C99.9053 4.11828 100.042 4.09675 100.185 4.09675C101.075 3.98911 102.051 4.36227 103.12 5.24492C103.501 5.55349 103.816 5.89794 104.06 6.28544C104.261 6.61554 104.563 7.4336 104.972 8.74682C105.072 9.04103 105.144 9.33525 105.18 9.62947C105.201 9.74428 105.273 10.5695 105.395 12.1052C105.538 13.9351 105.567 15.32 105.488 16.2601L105.503 16.2673Z" fill="#FD6854"/>
<path d="M59.2525 4.31938C58.2407 4.31938 57.2289 4.30503 56.2099 4.29785C55.9659 4.29785 55.7147 4.47725 55.6286 4.71406C55.564 4.89346 55.5999 5.05851 55.7147 5.16615C55.7363 5.34555 55.7004 5.87658 55.5497 6.5583C55.0976 8.59629 54.6455 10.6343 54.1863 12.6723C54.0356 13.354 53.8418 13.8778 53.7342 14.0572C53.5763 14.1649 53.4615 14.3299 53.4471 14.5093C53.4256 14.7533 53.5978 14.9327 53.8418 14.9327C54.9971 14.9327 56.1453 14.9327 57.3006 14.9327C59.5826 14.9327 62.3884 12.945 63.1276 9.62963C63.7662 6.75923 61.9938 4.33373 59.2453 4.31938H59.2525ZM57.5446 13.8491C56.8127 13.8491 56.0879 13.8491 55.3559 13.8491C55.9874 11.0218 56.6117 8.20161 57.2432 5.38861C57.7958 5.38861 58.3412 5.38861 58.8937 5.39578C58.9296 5.40296 58.9655 5.41013 59.0085 5.41013C60.8456 5.41731 62.1803 7.50553 61.7067 9.62246C61.2546 11.6604 59.475 13.842 57.5446 13.842V13.8491Z" fill="#FD6854"/>
<path d="M66.5729 17.1359C66.5729 17.1359 66.5585 17.1359 66.5514 17.1359C66.5298 17.1359 66.5011 17.1359 66.4724 17.1359C66.3935 17.1431 66.3146 17.179 66.2428 17.2148C66.1782 17.2507 66.1136 17.301 66.0562 17.3512C66.0347 17.3799 66.006 17.4014 65.9845 17.4301C64.987 18.7075 64.4129 18.9371 63.2217 18.9443C63.6594 17.6598 64.1043 16.3824 64.5421 15.1051C64.6354 15.1051 64.7287 15.1051 64.8148 15.1051C64.8578 15.1051 64.8794 15.1051 64.8937 15.1051C64.8794 15.1625 64.8291 15.2773 64.7 15.4424C64.5134 15.6863 64.5277 15.9662 64.743 16.0739C64.8004 16.1026 64.8578 16.1169 64.9224 16.1169C65.109 16.1169 65.3243 16.0093 65.4678 15.8299C65.9916 15.1769 66.5155 14.5238 67.0393 13.8636C67.0967 13.7919 67.147 13.7201 67.1757 13.6412C67.2618 13.3828 67.1326 13.1676 66.8671 13.1604C66.8599 13.1604 66.8528 13.1604 66.8456 13.1604C66.8241 13.1604 66.8097 13.1604 66.7882 13.1604C66.7092 13.1676 66.6375 13.1963 66.5657 13.225C66.5011 13.2609 66.4366 13.3039 66.3791 13.3541C66.3576 13.3685 66.3433 13.39 66.3289 13.4115C65.7764 14.0215 65.4391 14.0215 65.1879 14.0215C65.0946 14.0215 65.0013 14.0215 64.9152 14.0215C65.3171 12.8518 65.719 11.6821 66.128 10.5124C67.3192 10.5124 67.7426 10.7492 67.8574 12.0338C67.8718 12.2132 68.0153 12.328 68.209 12.328C68.2593 12.328 68.3167 12.3208 68.3813 12.2993C68.6539 12.2203 68.8764 11.962 68.8979 11.718C68.9482 11.0793 68.9984 10.4335 69.0414 9.79484C69.0558 9.57956 68.9123 9.43604 68.6898 9.43604C67.5345 9.43604 66.3791 9.43604 65.2166 9.43604C64.9726 9.43604 64.7 9.61544 64.5851 9.85224C64.499 10.0316 64.5134 10.1967 64.621 10.3043C64.621 10.4837 64.5206 11.0076 64.2837 11.6893C63.5877 13.7201 62.8844 15.7509 62.1883 17.7817C61.9587 18.4563 61.7004 18.9801 61.5712 19.1595C61.399 19.2672 61.2626 19.4322 61.2268 19.6116C61.1765 19.8484 61.3201 20.0278 61.5712 20.0278C62.7266 20.0278 63.8891 20.0278 65.0444 20.0207C65.2669 20.0207 65.5108 19.87 65.6472 19.6619C66.0347 19.0304 66.4222 18.3989 66.8025 17.7674C66.8384 17.7172 66.8671 17.6669 66.8815 17.6095C66.9748 17.3512 66.8384 17.1359 66.5729 17.1287V17.1359Z" fill="#FD6854"/>
<path d="M30.0833 23.0052C29.8249 22.8187 29.3082 21.4624 28.971 19.733C27.7941 14.028 26.6172 8.28005 25.4404 2.47465C25.3901 2.23784 25.1677 2.06561 24.9093 2.05844C24.3927 2.04408 23.876 2.02973 23.3593 2.01538C23.1297 2.01538 22.9216 2.14455 22.8498 2.34548C22.7781 2.55358 22.8498 2.77604 23.0508 2.91238C23.1656 3.00567 23.4526 3.52234 23.7325 4.49828C22.7063 9.52867 21.6801 14.5949 20.654 19.7043C20.2736 21.6561 19.7498 23.0842 19.4843 23.2995C19.2833 23.4286 19.1901 23.6583 19.2546 23.8735C19.3192 24.0888 19.5345 24.2252 19.7785 24.218C20.3239 24.2036 20.8692 24.1821 21.4146 24.1678C21.6873 24.1606 21.9098 23.9668 21.9457 23.7157C21.9744 23.5076 21.8595 23.3066 21.6658 23.2133C21.5007 22.8474 21.6371 21.3332 21.9672 19.8765C22.0102 19.6469 22.0533 19.4172 22.0963 19.1804C23.6607 19.1517 25.2323 19.123 26.7966 19.1015C26.8469 19.3239 26.8899 19.5536 26.9402 19.776C27.4281 22.2374 27.2846 22.9119 27.22 23.0698C27.0334 23.1775 26.9258 23.3712 26.9617 23.5721C27.0047 23.809 27.2272 23.9884 27.4927 23.974C28.2605 23.9525 29.0212 23.9309 29.789 23.9094C30.0258 23.9094 30.234 23.7587 30.3057 23.5434C30.3775 23.3353 30.2842 23.1129 30.0833 22.9981V23.0052ZM25.7705 17.3075C25.4404 17.6806 24.9524 17.8959 24.4357 17.9031C23.9191 17.9103 23.4311 17.7093 23.101 17.3434C22.7709 16.9774 22.6345 16.4966 22.7278 16.023C23.2947 13.1956 23.8688 10.3826 24.4357 7.58397C25.0026 10.397 25.5695 13.2028 26.1436 15.9943C26.2369 16.4607 26.1006 16.9415 25.7705 17.3147V17.3075Z" fill="#FD6854"/>
<path d="M50.5481 22.6468C50.2898 22.4674 49.7803 21.147 49.4358 19.4822C48.259 13.9782 47.0821 8.45263 45.9052 2.89839C45.855 2.66875 45.6325 2.50371 45.3742 2.50371C44.8575 2.49653 44.3408 2.48935 43.8242 2.48218C43.5874 2.48218 43.3793 2.61135 43.3147 2.8051C43.2429 2.99885 43.3218 3.22131 43.5156 3.3433C43.6304 3.42941 43.9175 3.91738 44.1973 4.85744C43.1712 9.67973 42.145 14.5235 41.1188 19.3961C40.7313 21.2546 40.2146 22.6109 39.9491 22.8118C39.7482 22.9267 39.6549 23.1491 39.7195 23.35C39.7841 23.5582 39.9994 23.6945 40.2433 23.6873C40.7887 23.6801 41.3341 23.6658 41.8795 23.6586C42.145 23.6586 42.3746 23.472 42.4105 23.2352C42.4392 23.0343 42.3316 22.8405 42.1306 22.7544C41.9656 22.4028 42.1019 20.9533 42.432 19.5683C42.4751 19.3458 42.5181 19.1234 42.5612 18.9081C44.1256 18.8937 45.6971 18.8794 47.2615 18.865C47.3117 19.0803 47.3548 19.2956 47.405 19.5109C47.893 21.8861 47.7495 22.532 47.6849 22.6827C47.4983 22.7831 47.3978 22.9697 47.4265 23.1635C47.4696 23.3931 47.692 23.5653 47.9576 23.5582C48.7254 23.551 49.4861 23.5366 50.2539 23.5294C50.4907 23.5294 50.6988 23.3859 50.7706 23.185C50.8423 22.9841 50.749 22.7688 50.5481 22.654V22.6468ZM46.2353 17.1284C45.9052 17.4801 45.4172 17.6882 44.9006 17.6953C44.3839 17.6953 43.8959 17.5016 43.5658 17.15C43.2357 16.7983 43.0994 16.3391 43.1927 15.887C43.7596 13.1888 44.3337 10.4906 44.9006 7.80679C45.4675 10.505 46.0344 13.1888 46.6085 15.8726C46.7018 16.3247 46.5654 16.784 46.2353 17.1356V17.1284Z" fill="#FD6854"/>
<path d="M127.805 23.6155C127.546 23.4003 127.03 21.9363 126.692 20.0993C125.516 14.0427 124.339 8.0651 123.162 2.14488C123.112 1.9009 122.889 1.73585 122.631 1.74302C122.114 1.75737 121.597 1.7789 121.081 1.79326C120.844 1.79326 120.643 1.95113 120.571 2.15923C120.5 2.36734 120.578 2.59697 120.772 2.71896C120.887 2.80507 121.174 3.31457 121.454 4.30486C120.428 9.49312 119.402 14.624 118.375 19.719C117.995 21.6565 117.471 23.063 117.206 23.2567C116.998 23.3715 116.912 23.594 116.976 23.8093C117.041 24.0246 117.256 24.1824 117.5 24.1896C118.045 24.204 118.591 24.2255 119.136 24.247C119.402 24.2542 119.631 24.0748 119.667 23.8308C119.696 23.6227 119.581 23.4146 119.387 23.307C119.222 22.9266 119.359 21.4125 119.689 19.9486C119.732 19.719 119.775 19.4821 119.818 19.2525C121.382 19.2812 122.954 19.3171 124.518 19.3458C124.568 19.5826 124.611 19.8194 124.662 20.049C125.15 22.6396 125.006 23.3357 124.942 23.4935C124.755 23.594 124.647 23.7878 124.683 24.003C124.726 24.2542 124.949 24.448 125.214 24.4623C125.982 24.491 126.743 24.5197 127.511 24.5484C127.747 24.5556 127.955 24.4121 128.027 24.1968C128.092 23.9815 128.006 23.7375 127.805 23.6084V23.6155ZM123.499 17.4585C123.169 17.8317 122.681 18.0398 122.164 18.0326C121.648 18.0254 121.16 17.803 120.83 17.4155C120.5 17.0351 120.363 16.54 120.457 16.0664C121.023 13.2103 121.597 10.3327 122.164 7.44078C122.731 10.3112 123.298 13.196 123.865 16.1022C123.958 16.5902 123.822 17.0854 123.492 17.4585H123.499Z" fill="#FD6854"/>
<path d="M117.665 9.19902C117.543 5.60383 115.706 1.97276 112.821 2.05888C111.788 2.08758 110.755 2.11628 109.721 2.14499C109.456 2.14499 109.226 2.33874 109.19 2.57555C109.155 2.78365 109.262 2.97741 109.463 3.07069C109.664 3.36491 109.872 4.714 109.872 6.47213C109.872 10.871 109.872 15.2628 109.872 19.6617C109.872 21.348 109.664 22.733 109.463 23.0344C109.269 23.1277 109.155 23.3286 109.19 23.5295C109.233 23.7735 109.456 23.9529 109.721 23.9601C110.489 23.9816 111.25 24.0031 112.018 24.0247C112.283 24.0318 112.506 23.8596 112.549 23.6228C112.585 23.4147 112.477 23.2138 112.276 23.1061C112.075 22.7976 111.867 21.3911 111.867 19.6975V16.7195C112.183 16.7195 112.506 16.7195 112.821 16.7267C115.699 16.7697 117.543 13.0956 117.665 9.51476V9.19184V9.19902ZM115.613 9.37124C115.613 13.9137 114.106 15.5139 112.821 15.4996C112.506 15.4996 112.183 15.4996 111.867 15.4996V3.31468C112.183 3.3075 112.506 3.30033 112.821 3.29315C113.109 3.28597 115.613 3.38644 115.613 9.37124Z" fill="#FD6854"/>
<path d="M19.4987 17.3582C19.3982 17.1788 19.2404 17.0568 19.0538 17.0066C18.9749 16.9851 18.9031 16.9707 18.8242 16.9492C18.7668 16.9348 18.7093 16.9277 18.6519 16.9277C18.3362 16.9277 18.0492 17.1573 17.963 17.4946C17.6186 18.8006 16.8221 19.9775 15.7744 20.8888C15.0496 21.5131 14.2028 22.0083 13.2771 22.3025C12.581 22.525 11.8778 22.6541 11.1817 22.6757C10.5646 22.6972 9.96178 22.6254 9.36617 22.4891C9.43075 22.2236 9.49534 21.9509 9.5671 21.6854L9.66039 19.346C9.78956 17.308 9.91872 15.27 10.0479 13.232C10.1125 12.1197 10.1771 11.0146 10.2416 9.90234C10.2847 9.16321 10.3134 8.28056 10.3349 7.24003C10.378 5.30968 10.4426 3.78837 10.5287 2.66173C10.5646 2.66173 10.6004 2.66173 10.6363 2.66173C10.665 2.66173 10.6937 2.66173 10.7224 2.66173C10.8085 2.66173 10.8947 2.67608 10.9808 2.68326C12.8896 2.84113 14.5544 3.78837 15.6739 5.25945C16.1977 5.94835 16.5996 6.74489 16.8436 7.64189C16.9369 7.97199 17.2167 8.19444 17.5325 8.20162C17.5325 8.20162 17.5397 8.20162 17.5468 8.20162C17.8698 8.20162 18.1496 7.96481 18.2286 7.64189C18.4223 6.8597 18.6089 6.07752 18.8026 5.30251C18.8672 5.04417 18.8026 4.76431 18.6232 4.57055C16.9225 2.69044 14.6764 1.42746 12.294 0.98972C11.9639 0.925136 11.6338 0.889256 11.3037 0.860552C11.1602 0.8462 11.0167 0.824672 10.8731 0.817496C9.93307 0.781616 8.98584 0.874904 8.06731 1.11171C2.29061 2.54692 -1.16823 9.29238 0.367442 15.8728C0.963051 18.3629 2.21885 20.4654 3.87652 21.9724C5.63464 23.5727 7.85203 24.4912 10.2345 24.5414C10.4426 24.5414 10.6507 24.5558 10.8588 24.5414C11.8132 24.5055 12.7676 24.3261 13.7005 24.0247C16.5135 23.1062 18.817 20.7238 19.5705 17.9395C19.6207 17.7386 19.5992 17.5304 19.4987 17.351V17.3582ZM6.30919 13.0167C6.23743 14.4017 6.15849 15.7938 6.08673 17.1788V17.5161C6.10826 18.693 6.10826 19.3675 6.08673 19.5397C6.07238 19.6833 5.97909 20.2215 5.87862 20.6448C4.37884 19.3173 3.2235 17.3941 2.67812 15.1408C2.39826 13.9424 2.34085 12.6938 2.47002 11.4739C2.74988 8.747 3.94828 6.17081 5.69205 4.53467C5.69205 4.53467 5.69205 4.53467 5.69205 4.54185C5.69205 4.54185 5.69205 4.53467 5.69205 4.5275C6.0652 4.18305 6.45271 3.87448 6.86892 3.62332C6.84021 4.03235 6.66081 5.19487 6.66081 5.38144C6.66081 5.6039 6.6034 6.87406 6.50294 9.19909C6.43835 10.4692 6.37377 11.7466 6.30919 13.0167ZM9.01455 21.4414C9.07195 21.8576 9.05043 22.1733 8.94996 22.3814C8.14625 22.1446 7.37124 21.7643 6.66081 21.262C6.64646 21.2046 6.63211 21.1543 6.63211 21.0969V20.8386C6.71822 19.2025 6.80433 17.5663 6.89044 15.9302C6.99808 13.885 7.04832 12.8015 7.04832 12.6795C7.1129 11.0577 7.16313 9.78752 7.20619 8.86899C7.24207 7.78541 7.27077 6.70183 7.30665 5.62543V5.36709C7.30665 4.74278 7.33536 4.33375 7.39994 4.13999C7.46453 3.99647 7.53628 3.86013 7.6224 3.73814C7.88073 3.48698 8.13907 3.23581 8.39741 2.98465C8.40458 2.97748 8.42611 2.95595 8.44046 2.9416C8.46199 2.9416 8.48352 2.92725 8.50505 2.92007C8.97149 2.79808 9.43075 2.74067 9.89002 2.71196C9.89002 2.94877 9.91872 3.16405 9.91872 3.40804C9.83261 4.94371 9.7465 6.48655 9.66039 8.0294C9.57428 9.90234 9.53122 11.2371 9.53122 12.0264C9.53122 12.2991 9.53122 12.5575 9.53122 12.8014C9.4164 14.3945 9.29441 15.9876 9.17959 17.5879C9.11501 18.6643 9.05043 19.7407 8.98584 20.8242C8.96431 20.9749 8.97149 21.183 9.01455 21.4557V21.4414Z" fill="#FD6854"/>
<path d="M91.8386 16.7551C91.7597 16.7336 91.6879 16.7192 91.609 16.6977C91.5516 16.6833 91.4942 16.6762 91.4368 16.6762C91.121 16.6762 90.834 16.8771 90.7479 17.1928C90.3963 18.4128 89.6069 19.4963 88.552 20.3C87.8272 20.8598 86.9805 21.2903 86.0548 21.52C85.3587 21.6994 84.6554 21.7855 83.9594 21.7783C83.3422 21.7783 82.7394 21.685 82.1438 21.5415C82.2084 21.3047 82.273 21.0607 82.3448 20.8239C82.3735 20.1206 82.4093 19.4174 82.438 18.7141C82.5672 16.8699 82.6964 15.0257 82.8255 13.1814C82.8901 12.1768 82.9547 11.1721 83.0193 10.1603C83.0624 9.49296 83.0911 8.68207 83.1126 7.74201C83.1556 5.98389 83.2202 4.59891 83.3063 3.57992C83.3422 3.57992 83.3781 3.57274 83.414 3.57274C83.4427 3.57274 83.4714 3.57274 83.5001 3.57274C83.5862 3.57274 83.6723 3.57274 83.7584 3.57992C85.6673 3.65168 87.3393 4.45539 88.4516 5.79013C88.9754 6.41445 89.3773 7.1464 89.6212 7.97882C89.7145 8.28021 89.9944 8.48832 90.3101 8.48832C90.3101 8.48832 90.3173 8.48832 90.3245 8.48832C90.6474 8.48114 90.9273 8.25868 91.0062 7.95011C91.2 7.21098 91.3865 6.47185 91.5803 5.73272C91.6449 5.48874 91.5803 5.2304 91.4009 5.051C89.7074 3.33593 87.4613 2.27388 85.0788 1.97967C84.7487 1.93661 84.4186 1.91508 84.0885 1.90791C83.945 1.90791 83.8015 1.88638 83.658 1.89355C82.7179 1.90073 81.7707 2.03707 80.8521 2.28824C75.0683 3.88131 71.6094 9.75847 73.1379 15.4706C73.7335 17.6449 74.9893 19.5107 76.6542 20.8957C78.4123 22.3667 80.6297 23.2924 83.0193 23.4503C83.2274 23.4647 83.4283 23.479 83.6436 23.479C84.598 23.4862 85.5524 23.3714 86.4853 23.1346C89.2983 22.417 91.6018 20.2713 92.3553 17.6521C92.4127 17.4655 92.384 17.2646 92.2907 17.0924C92.1903 16.9201 92.0324 16.7981 91.8458 16.7479L91.8386 16.7551ZM79.0868 12.9805C79.0151 14.2148 78.9361 15.4562 78.8644 16.6905C78.8644 16.8053 78.8644 16.8986 78.8644 16.9919C78.8859 18.0396 78.8859 18.6424 78.8644 18.8003C78.85 18.9294 78.7567 19.4102 78.6563 19.7834C77.1565 18.5563 75.994 16.8412 75.4558 14.8534C75.1759 13.7986 75.1185 12.7078 75.2477 11.6314C75.5275 9.2418 76.7259 6.94547 78.4769 5.44568C78.4769 5.44568 78.4769 5.44568 78.4769 5.45286C78.4769 5.45286 78.4769 5.44568 78.4769 5.43851C78.85 5.11559 79.2375 4.82855 79.6537 4.59174C79.625 4.95771 79.4456 6.00541 79.4456 6.17046C79.4456 6.37139 79.3882 7.5052 79.2878 9.57907C79.2232 10.7129 79.1586 11.8539 79.094 12.9877L79.0868 12.9805ZM81.7922 20.5871C81.8496 20.9674 81.8281 21.2473 81.7276 21.4339C80.9167 21.1899 80.1489 20.8239 79.4313 20.3503C79.4169 20.3 79.4026 20.257 79.4026 20.2068V19.9699C79.4887 18.5132 79.5748 17.0493 79.6609 15.5926C79.7686 13.7627 79.826 12.7939 79.8188 12.6791C79.8834 11.2296 79.9336 10.0957 79.9767 9.26333C80.0125 8.29456 80.0413 7.3258 80.0771 6.34986C80.0771 6.27093 80.0771 6.19199 80.0771 6.11305C80.0771 5.55332 80.113 5.18735 80.1704 5.00795C80.235 4.8716 80.3068 4.74961 80.3929 4.64197C80.6512 4.40516 80.9096 4.16835 81.1679 3.93154C81.1751 3.92437 81.1966 3.90284 81.2109 3.89566C81.2325 3.88849 81.254 3.88131 81.2755 3.87414C81.742 3.75214 82.2012 3.68038 82.6605 3.63015C82.6677 3.84543 82.682 4.03918 82.6892 4.26164C82.6031 5.66096 82.517 7.06029 82.4309 8.45244C82.3448 10.1532 82.3017 11.3587 82.3017 12.0763C82.3017 12.3203 82.3017 12.5571 82.3017 12.7796C82.1869 14.222 82.0649 15.6643 81.9501 17.0995C81.8855 18.0683 81.8209 19.0442 81.7563 20.013C81.7348 20.1493 81.742 20.3359 81.7922 20.5799V20.5871Z" fill="#FD6854"/>
<path d="M35.1705 11.4164C35.6298 10.1678 36.0962 8.91919 36.5555 7.67774C36.7277 7.66339 36.8928 7.58445 36.9789 7.44093C37.4095 6.72333 37.84 6.01291 38.2706 5.30248C38.3352 5.20202 38.3495 5.07285 38.3208 4.95803C37.7683 2.9918 35.9958 2.21679 35.0127 2.19526C34.1874 2.18091 31.4892 2.48948 31.4892 7.44093C31.4892 9.9956 32.6661 11.56 33.9721 13.1172C33.5703 14.2079 33.1684 15.2987 32.7666 16.3894C32.6231 16.4181 32.4867 16.4899 32.4078 16.6191C31.9772 17.351 31.5466 18.083 31.1161 18.8149C31.0515 18.9226 31.0372 19.0446 31.0659 19.1594C31.195 19.6617 32.4006 24.0032 35.4073 23.9242C37.1224 23.8812 38.9595 22.4675 38.9595 18.5996C38.9595 15.923 37.6319 14.373 36.2182 12.7081C35.8594 12.2919 35.5078 11.8614 35.1634 11.4093L35.1705 11.4164ZM33.2474 7.15389C32.989 5.66846 33.1684 4.47724 33.7497 3.87445C34.0726 3.54436 34.5103 3.38648 35.0988 3.40083C35.4432 3.40083 35.7231 3.55871 35.9455 3.86728C36.4766 4.60641 36.5053 6.01291 36.0101 7.01037C35.9312 7.16825 35.9671 7.34047 36.0675 7.47681C36.0675 7.47681 36.0604 7.49117 36.0532 7.49117C35.6298 8.62498 35.2136 9.75879 34.7902 10.8998C34.087 9.88078 33.4985 8.70391 33.2402 7.16107L33.2474 7.15389ZM36.6775 22.2092C36.3546 22.5465 35.9168 22.7115 35.3284 22.7259C34.8835 22.733 34.496 22.3312 34.2448 21.9867C33.2258 20.5802 32.8957 18.004 33.3765 17.0424C33.4698 16.863 33.4268 16.6549 33.2904 16.5186C33.6492 15.5355 34.008 14.5595 34.3668 13.5836C35.6226 15.069 36.8784 16.6262 37.2301 19.2024C37.4238 20.5443 37.2229 21.6351 36.6703 22.2092H36.6775Z" fill="#FD6854"/>
<path d="M133.051 12.7083C132.699 12.249 132.34 11.7825 131.996 11.3018C132.455 9.93831 132.922 8.57487 133.381 7.19707C133.553 7.17554 133.718 7.08226 133.804 6.92438C134.235 6.12785 134.666 5.32413 135.096 4.51324C135.161 4.39125 135.175 4.2549 135.146 4.13291C134.594 1.98011 132.828 1.24815 131.845 1.29121C131.02 1.32709 128.322 1.85094 128.322 7.10379C128.322 9.8235 129.499 11.4596 130.805 13.1532C130.403 14.33 130.001 15.4997 129.606 16.6622C129.463 16.6909 129.327 16.7627 129.248 16.8991C128.817 17.6741 128.386 18.4419 127.956 19.2026C127.891 19.3102 127.877 19.4394 127.906 19.5614C128.035 20.0852 129.24 24.7711 132.247 24.9147C133.962 24.9936 135.799 23.5512 135.799 19.2456C135.799 16.2676 134.472 14.5238 133.058 12.7083H133.051ZM130.073 6.73781C129.815 5.15191 130.001 3.86022 130.575 3.18568C130.898 2.81253 131.336 2.61877 131.924 2.59724C132.269 2.58289 132.549 2.73359 132.771 3.05651C133.302 3.83152 133.331 5.37436 132.836 6.47947C132.757 6.6517 132.793 6.84545 132.893 6.98897C132.893 6.98897 132.886 7.00332 132.879 7.0105C132.455 8.25912 132.039 9.50775 131.616 10.7492C130.912 9.65127 130.331 8.39547 130.073 6.74498V6.73781ZM133.503 23.1207C133.18 23.4723 132.742 23.6302 132.154 23.6086C131.709 23.5943 131.321 23.1278 131.07 22.7475C130.051 21.1688 129.721 18.3988 130.202 17.3798C130.295 17.1861 130.252 16.9636 130.116 16.8129C130.475 15.7652 130.834 14.7175 131.192 13.6627C132.448 15.2773 133.704 17.0067 134.056 19.8556C134.249 21.3338 134.056 22.5322 133.503 23.1278V23.1207Z" fill="#FD6854"/>
</svg>
